<svg xmlns="http://www.w3.org/2000/svg" width="66" height="40" viewBox="0 0 66 40" fill="none">
    <mask id="mask0_113_305" style="mask-type:luminance" maskUnits="userSpaceOnUse" x="0" y="0" width="66"
        height="40">
        <path d="M65.282 0H0.635498V40H65.282V0Z" fill="white" />
    </mask>
    <g mask="url(#mask0_113_305)">
        <path
            d="M32.9798 39.9919H5.05415C4.54829 40.0186 4.04124 39.9806 3.54548 39.8788C2.70831 39.6788 1.96526 39.1996 1.44082 38.5204C0.916778 37.8416 0.642836 37.0044 0.665462 36.1487C0.656169 31.4827 0.665462 26.8153 0.665462 22.1491C0.665462 16.1638 0.719221 10.1772 0.642453 4.19598C0.618211 3.6395 0.710735 3.08411 0.913967 2.56499C1.1176 2.04592 1.42709 1.57449 1.82345 1.18063C2.21982 0.786731 2.69416 0.479014 3.21658 0.276954C3.73901 0.074893 4.2978 -0.0170665 4.8578 0.00685266C23.6433 0.0413577 42.4291 0.0459234 61.2158 0.0204688C61.8376 -0.0161776 62.4594 0.0928729 63.0311 0.338812C63.6028 0.584752 64.1083 0.960711 64.5071 1.43639C65.0154 2.02924 65.2905 2.78487 65.282 3.56366C65.2671 14.5067 65.2639 25.4502 65.2723 36.3943C65.2736 37.2901 64.9358 38.1535 64.3261 38.8133C63.7164 39.4731 62.8792 39.8812 61.981 39.9563C61.6243 39.9879 61.2663 39.9919 60.9083 39.9919H32.9798ZM33.0129 39.3418C42.4069 39.3418 51.8008 39.3119 61.1952 39.3648C61.6719 39.3903 62.1487 39.3155 62.5944 39.145C63.04 38.9745 63.4444 38.7123 63.781 38.3757C64.118 38.0392 64.379 37.6359 64.5479 37.1919C64.7168 36.7479 64.7891 36.2735 64.7608 35.8C64.7277 25.274 64.7471 14.7479 64.7455 4.22055C64.7988 3.73728 64.7418 3.24831 64.5786 2.79C64.4154 2.3317 64.1503 1.91586 63.8028 1.5734C63.4558 1.23097 63.0352 0.970731 62.5729 0.812024C62.1103 0.653358 61.6178 0.600348 61.1321 0.656873C42.3822 0.656873 23.636 0.651459 4.89376 0.640549C4.41295 0.614044 3.93215 0.688428 3.48245 0.858812C3.03275 1.02924 2.62386 1.29182 2.28325 1.62952C1.94224 1.96722 1.67678 2.37247 1.50385 2.81889C1.33092 3.26532 1.25496 3.74289 1.28001 4.22055C1.33294 14.7466 1.33294 25.273 1.28001 35.8C1.25657 36.2768 1.33416 36.7527 1.5079 37.198C1.68163 37.6428 1.9471 38.0465 2.28811 38.383C2.62872 38.7192 3.03679 38.9806 3.48568 39.1503C3.93417 39.32 4.41416 39.3939 4.89376 39.3677C14.2671 39.305 23.6392 39.3406 33.0073 39.3406"
            fill="#0BB7E5" />
        <path
            d="M45.8851 17.2537C45.7247 15.2491 45.8661 13.2431 45.8095 11.2385C45.7974 10.7929 45.9315 10.6566 46.3691 10.6825C46.9364 10.7114 47.5053 10.7114 48.0725 10.6825C48.3824 10.6702 48.4632 10.7847 48.462 11.0804C48.4536 14.1539 48.4536 17.227 48.462 20.2995C48.462 20.5885 48.3881 20.7411 48.0754 20.6975C48.0334 20.6907 47.9909 20.6907 47.9489 20.6975C47.2826 20.8645 46.578 20.7906 45.9614 20.489C45.3445 20.1874 44.856 19.6779 44.5824 19.0512C43.6483 17.4486 42.2729 16.1268 41.4281 14.4492C41.3925 14.3769 41.3376 14.3129 41.1744 14.3483C41.2653 15.4447 41.2936 16.5453 41.2592 17.6449C41.2592 18.5021 41.2414 19.3606 41.2689 20.2164C41.2814 20.6075 41.1509 20.7247 40.7671 20.7043C40.2006 20.6743 39.6301 20.6866 39.0637 20.7043C38.7647 20.7111 38.603 20.6607 38.6043 20.2954C38.6164 17.2229 38.6164 14.1498 38.6043 11.0763C38.6043 10.7752 38.7045 10.6498 39.0047 10.6879C39.0467 10.6944 39.0891 10.6944 39.1311 10.6879C39.7978 10.5234 40.502 10.597 41.1198 10.8959C41.738 11.1948 42.2305 11.7 42.5113 12.3232C43.5194 14.0226 44.98 15.4317 45.8782 17.251"
            fill="#047091" />
        <path
            d="M26.4579 29.5364C25.8543 29.5364 25.3072 29.5201 24.7642 29.5364C24.4074 29.5514 24.3307 29.3293 24.3048 29.0704C24.2333 28.3331 23.8329 28.1014 23.1198 28.2023C22.6802 28.2569 22.2357 28.2569 21.7965 28.2023C21.2765 28.145 20.9872 28.329 20.942 28.8387C20.8911 29.4192 20.5897 29.5705 20.0244 29.5419C19.0167 29.4915 18.003 29.5119 16.9937 29.5419C16.8297 29.5642 16.6632 29.5328 16.5185 29.4524C16.3743 29.3719 16.2604 29.2469 16.1941 29.0963C15.7711 28.3047 15.281 27.5502 14.7295 26.8409C14.7295 27.5495 14.7076 28.2595 14.7379 28.9668C14.7557 29.3756 14.6664 29.5487 14.1973 29.5446C12.8135 29.5323 12.8135 29.5555 12.8135 28.1818C12.8135 26.3203 12.826 24.4574 12.8042 22.5945C12.8042 22.1679 12.8987 22.0031 13.3525 22.0262C14.2975 22.0753 15.2466 22.0562 16.1929 22.0971C16.7194 22.1054 17.2264 22.2952 17.6276 22.6339C18.0288 22.9726 18.2995 23.4393 18.3929 23.9542C18.4862 24.4691 18.3969 25.0002 18.14 25.4569C17.883 25.9136 17.4745 26.2674 16.984 26.4579C16.9278 26.4838 16.8745 26.5193 16.7783 26.5738L18.7133 29.4192C18.9961 28.6247 19.2523 27.9202 19.5008 27.2006C20.0369 25.6621 20.5896 24.1276 21.0915 22.5781C21.1056 22.4881 21.1383 22.402 21.1876 22.3252C21.2365 22.2483 21.3012 22.1822 21.3771 22.1311C21.4527 22.08 21.5383 22.0449 21.6284 22.0281C21.7185 22.0112 21.8111 22.0129 21.9008 22.033C22.3412 22.0706 22.7844 22.0706 23.2252 22.033C23.3202 22.0115 23.4183 22.0097 23.5141 22.0278C23.6099 22.0459 23.7004 22.0835 23.7808 22.1381C23.8612 22.1928 23.9291 22.2634 23.9804 22.3454C24.0321 22.4275 24.0656 22.5192 24.0797 22.6149C24.7779 24.7163 25.5198 26.8027 26.2466 28.8932C26.3125 29.0854 26.3727 29.2788 26.4535 29.5296M22.5795 23.389C22.3751 24.0826 22.2022 24.6809 22.02 25.2764C21.54 26.8463 21.54 26.8395 23.1868 26.7591C23.4858 26.7455 23.6078 26.7018 23.4996 26.368C23.1897 25.414 22.9044 24.4492 22.5795 23.389ZM15.1658 23.6275C14.8078 23.5484 14.6898 23.7324 14.7173 24.1113C14.7448 24.4901 14.7254 24.8621 14.7173 25.2382C14.7173 25.4426 14.7351 25.5844 15.0066 25.6157C15.7444 25.7002 16.323 25.3432 16.3654 24.7408C16.4175 23.9831 16.0515 23.6315 15.1614 23.6288"
            fill="#03AFD8" />
        <path
            d="M24.7036 15.2712C25.0709 15.3305 25.4208 15.4685 25.7295 15.6755C26.0377 15.8826 26.2971 16.1538 26.4894 16.4703C26.6818 16.7869 26.8026 17.1412 26.8438 17.5088C26.8846 17.8764 26.8446 18.2484 26.7266 18.5991C26.5747 19.1709 26.2365 19.6767 25.7654 20.0378C25.2943 20.3989 24.7157 20.595 24.121 20.5956C22.527 20.755 20.9254 20.6991 19.321 20.7168C18.9711 20.7168 18.9097 20.5806 18.9097 20.2699C18.9177 17.2173 18.9177 14.1651 18.9097 11.1134C18.9097 10.8409 18.9464 10.6814 19.2798 10.691C20.8781 10.6481 22.4777 10.69 24.0713 10.8164C24.3998 10.8246 24.7226 10.9009 25.0192 11.0405C25.3161 11.1801 25.58 11.3799 25.7945 11.6269C26.0086 11.874 26.169 12.1629 26.264 12.4751C26.3594 12.7873 26.388 13.1159 26.348 13.4397C26.3145 13.8818 26.1347 14.3006 25.8373 14.631C25.5396 14.9614 25.1408 15.185 24.7024 15.2671M21.4587 17.5716V18.3211C21.4587 18.5132 21.5068 18.6495 21.7331 18.6482C22.3396 18.6864 22.9484 18.6405 23.542 18.5119C23.7448 18.4368 23.9181 18.2997 24.0373 18.1204C24.1565 17.9411 24.2155 17.7288 24.2058 17.5141C24.1957 17.2994 24.1177 17.0933 23.9824 16.9256C23.847 16.7579 23.6616 16.6372 23.4531 16.5808C23.1658 16.5223 22.8749 16.4872 22.582 16.4759C21.4632 16.4459 21.4632 16.4528 21.4632 17.5743M21.4632 13.6223C21.4753 14.8092 21.3493 14.6962 22.0321 14.6989C23.3117 14.6989 23.8066 14.41 23.7973 13.6823C23.7876 12.9545 23.3294 12.7283 22.0143 12.6793C21.0721 12.6479 21.6196 13.332 21.4656 13.6223"
            fill="#047091" />
        <path
            d="M59.7117 10.6991C58.5691 12.1981 57.5437 13.5963 56.456 14.9441C56.3639 15.0208 56.2899 15.1167 56.2394 15.2249C56.1885 15.333 56.1622 15.4509 56.1622 15.5703C56.1622 15.6897 56.1885 15.8076 56.2394 15.9158C56.2899 16.0239 56.3639 16.1198 56.456 16.1965C57.5437 17.4993 58.5719 18.8498 59.6196 20.184C59.7307 20.3202 59.8281 20.477 59.9914 20.7073C58.8722 20.7073 57.8467 20.7073 56.8261 20.7073C56.5315 20.7073 56.4451 20.4742 56.3146 20.2984C55.3614 19.0052 54.418 17.7092 53.3372 16.4323V19.5149C53.3372 20.7073 53.3372 20.7073 52.1623 20.7073C50.6083 20.7073 50.6083 20.7073 50.6083 19.1482C50.6083 16.514 50.6192 13.8798 50.5974 11.2442C50.5974 10.8081 50.7041 10.6555 51.157 10.6882C51.7239 10.725 52.2932 10.725 52.86 10.6882C53.2713 10.6637 53.3538 10.8245 53.3469 11.1924C53.3158 12.4777 53.3534 13.7637 53.4592 15.045C54.0548 14.2019 54.6487 13.3587 55.2422 12.5157C55.6661 11.9201 55.9772 11.1038 56.5574 10.8C57.2657 10.6163 58.0047 10.5815 58.7271 10.6977C59.001 10.6977 59.2673 10.6977 59.7077 10.6977"
            fill="#047091" />
        <path
            d="M32.4661 10.7442C33.0297 10.7442 33.7372 10.5398 34.1117 10.8015C34.4859 11.0632 34.5655 11.7881 34.7521 12.3183C35.6612 14.9198 36.5501 17.5295 37.477 20.1255C37.658 20.6298 37.5485 20.7442 37.0438 20.7102C36.4956 20.6747 35.9461 20.6747 35.3982 20.7102C35.0265 20.7333 34.8919 20.5834 34.7946 20.2509C34.3998 18.9059 34.3833 18.9086 32.9816 18.9086C32.3081 18.9086 31.6337 18.9263 30.9602 18.9018C30.62 18.8895 30.4859 19.0285 30.3909 19.3324C29.9606 20.7034 29.9521 20.6952 28.5384 20.6952C27.2766 20.6952 27.2778 20.6952 27.6948 19.4891C28.6386 16.7636 29.597 14.0476 30.5061 11.3125C30.6806 10.792 30.9287 10.6202 31.4443 10.6761C31.7808 10.697 32.1182 10.6993 32.4552 10.6829V10.732M33.8265 16.9312L32.477 12.4559L31.1441 16.9326L33.8265 16.9312Z"
            fill="#047091" />
        <path
            d="M32.61 26.9656C32.61 25.4134 32.6253 24.0206 32.6019 22.6279C32.595 22.1973 32.7114 22.0528 33.1615 22.0541C34.5655 22.0541 34.5655 22.0378 34.5655 23.4019C34.5655 25.2635 34.5518 27.1264 34.5769 28.9893C34.5769 29.4254 34.4544 29.5058 34.0282 29.5616C33.5801 29.651 33.1154 29.5904 32.7057 29.3891C32.2964 29.1879 31.9655 28.8575 31.7651 28.4496C30.9821 27.1686 29.9069 26.0784 29.1251 24.7293C29.1433 25.0836 29.172 25.4393 29.1761 25.7936C29.1841 26.5881 29.1761 27.3826 29.1761 28.1784C29.1761 29.5521 29.176 29.5289 27.7938 29.5508C27.3219 29.5575 27.193 29.4335 27.1987 28.962C27.2257 26.8484 27.2217 24.7374 27.1987 22.6211C27.1987 22.1891 27.3219 22.0977 27.7579 22.0446C28.2068 21.9552 28.6726 22.0159 29.0831 22.217C29.4936 22.4181 29.8257 22.7485 30.0278 23.1566C30.7958 24.424 31.871 25.4924 32.6116 26.9724"
            fill="#03AFD8" />
        <path
            d="M60.0189 29.5355C59.2565 29.5355 58.6104 29.5232 57.9619 29.5355C57.6573 29.5437 57.5765 29.3283 57.4613 29.1376C57.029 28.3626 56.5341 27.6239 55.9813 26.9285C55.9813 27.644 55.9652 28.3594 55.9882 29.0749C55.9991 29.4306 55.8799 29.5314 55.5219 29.5409C54.0339 29.5764 54.0338 29.5886 54.0338 28.091C54.0338 26.2498 54.0464 24.4115 54.0229 22.5677C54.0229 22.1479 54.1506 22.0225 54.5579 22.0361C55.5672 22.0757 56.5793 22.0566 57.5886 22.1152C58.0896 22.1266 58.5696 22.3169 58.9409 22.6513C59.3118 22.9856 59.5498 23.4416 59.61 23.9359C59.749 24.4256 59.6977 24.9492 59.467 25.4033C59.2363 25.8574 58.8423 26.2091 58.3635 26.3888C57.9959 26.5483 58.0674 26.6737 58.2359 26.9176C58.8161 27.753 59.3826 28.5993 60.0189 29.5341M55.9664 24.59C55.9773 24.7147 55.9773 24.8401 55.9664 24.9647C55.8524 25.5848 56.1846 25.6802 56.6864 25.5807C56.789 25.5603 56.892 25.5399 56.9935 25.5099C57.1122 25.4822 57.2234 25.4298 57.3199 25.3562C57.4165 25.2826 57.4965 25.1895 57.5543 25.0829C57.6116 24.9764 57.646 24.8589 57.6545 24.7382C57.6633 24.6175 57.646 24.4964 57.6039 24.3828C57.4844 23.8078 57.0153 23.5298 56.2872 23.6265C55.6823 23.7056 56.0815 24.1866 55.9676 24.466C55.9603 24.5075 55.9603 24.5499 55.9676 24.5913"
            fill="#03AFD8" />
        <path
            d="M48.0727 25.7412C48.0727 24.6755 48.0864 23.6098 48.0642 22.5441C48.0573 22.1776 48.1357 22.025 48.5442 22.0331C49.7636 22.059 50.9842 22.0563 52.2032 22.0331C52.5983 22.0263 52.6941 22.153 52.6872 22.5374C52.6666 23.7079 52.6872 23.708 51.5369 23.708C51.2626 23.727 50.9878 23.727 50.7139 23.708C50.1652 23.6289 50.0638 23.8674 50.0569 24.3689C50.0488 24.9004 50.2052 25.0694 50.7264 25.0121C51.1212 24.9686 51.5256 25.0408 51.926 24.9944C52.4529 24.9331 52.5927 25.1607 52.5268 25.6267C52.509 25.7511 52.509 25.8772 52.5268 26.0015C52.5983 26.4785 52.4282 26.6829 51.9139 26.6298C51.5187 26.5875 51.1143 26.6584 50.7139 26.612C50.1652 26.548 50.0541 26.7619 50.0585 27.2702C50.0626 27.7786 50.1955 27.9516 50.6933 27.8876C50.9672 27.87 51.242 27.87 51.5163 27.8876C52.76 27.8876 52.7503 27.8876 52.682 29.1509C52.6654 29.4398 52.5927 29.5597 52.2816 29.5597C51.002 29.5474 49.7155 29.542 48.4331 29.5597C48.0327 29.5597 48.063 29.3389 48.0642 29.0787V25.7385"
            fill="#03AFD8" />
        <path
            d="M40.18 23.9809C39.7695 23.6687 39.2782 23.4795 38.7634 23.4358C38.3877 23.4358 38.0188 23.5066 37.9255 23.94C37.8321 24.3734 38.1461 24.5764 38.5081 24.7004C38.8701 24.8244 39.2337 24.9157 39.5929 25.0329C39.9784 25.1092 40.3315 25.3007 40.6042 25.5817C40.8774 25.8628 41.0576 26.22 41.1206 26.6056C41.2285 27.0787 41.1978 27.5726 41.0321 28.0289C40.8669 28.4853 40.5735 28.8851 40.1869 29.1812C39.5279 29.6021 38.7493 29.7997 37.9679 29.7444C37.1865 29.6892 36.4442 29.384 35.8519 28.8746C35.6996 28.7233 35.6075 28.5911 35.7558 28.3935C35.8051 28.3267 35.8434 28.2573 35.8927 28.1796C36.0822 27.8784 36.2071 27.445 36.4798 27.3115C36.8269 27.1411 36.997 27.6671 37.3028 27.8212C37.6564 28.0516 38.0749 28.1629 38.4972 28.1387C38.6786 28.1358 38.8531 28.0694 38.9901 27.9512C39.1271 27.8331 39.2176 27.6707 39.2459 27.4927C39.2875 27.3164 39.26 27.1311 39.1695 26.9741C39.079 26.817 38.9319 26.7 38.7578 26.6465C38.3655 26.4965 37.9582 26.3862 37.5618 26.2485C37.0895 26.1592 36.6665 25.9002 36.3735 25.521C36.0806 25.1418 35.9384 24.6688 35.9739 24.1921C35.9861 23.6858 36.163 23.1971 36.479 22.7996C36.7949 22.4022 37.2321 22.1175 37.7251 21.9885C38.6325 21.7582 39.5933 21.8714 40.4212 22.306C40.7162 22.4423 40.8491 22.5963 40.6612 22.9302C40.4733 23.264 40.3525 23.6116 40.1897 23.9822"
            fill="#03AFD8" />
        <path
            d="M42.3114 25.7548C42.3114 24.73 42.332 23.7107 42.3017 22.6804C42.288 22.2103 42.391 22.0126 42.9203 22.0317C44.0762 22.0726 45.2391 22.0644 46.3926 22.0317C46.837 22.0208 46.9615 22.153 46.9522 22.5877C46.9344 23.6998 46.9522 23.7038 45.8233 23.7038C45.5716 23.7221 45.3183 23.7221 45.0665 23.7038C44.4629 23.6153 44.2544 23.8292 44.2944 24.4479C44.3219 24.8772 44.4124 25.0393 44.8633 25.0039C45.3861 24.9658 45.9154 25.0039 46.4419 24.9917C46.7162 24.9848 46.793 25.0789 46.8124 25.3514C46.9001 26.6147 46.911 26.6147 45.6411 26.6147C44.3134 26.6147 44.3134 26.6147 44.3134 27.9052V28.0933C44.3134 29.5924 44.3134 29.5924 42.768 29.5446C42.4088 29.5351 42.296 29.4315 42.3017 29.0759C42.3195 27.968 42.3017 26.8587 42.3017 25.7494"
            fill="#03AFD8" />
        <path
            d="M8.04959 26.6697C8.04959 25.897 8.03586 25.123 8.04959 24.353C8.05929 23.9974 7.98657 23.8379 7.5696 23.8338C6.33526 23.8188 6.3615 23.7984 6.35181 22.5664C6.35181 22.1481 6.47505 22.035 6.88273 22.0418C8.35545 22.0627 9.82817 22.0627 11.3013 22.0418C11.6742 22.0418 11.8662 22.1249 11.7991 22.5269C11.7955 22.5686 11.7955 22.6106 11.7991 22.6523C11.806 23.8147 11.806 23.8365 10.6334 23.8338C10.2015 23.8338 10.1122 23.9864 10.1163 24.3789C10.134 25.9257 10.1163 27.4738 10.1312 29.0205C10.1312 29.4184 10.0354 29.5561 9.60595 29.5574C8.03868 29.5574 8.03869 29.5806 8.03869 28.0584V26.6793"
            fill="#03AFD8" />
        <path
            d="M12.7373 10.6705C13.8932 10.6705 15.0508 10.6827 16.2051 10.6637C16.5813 10.6637 16.7538 10.7073 16.7538 11.157C16.7538 12.6792 16.7704 12.6887 15.2165 12.6751C13.3029 12.6578 11.3902 12.6283 9.47868 12.5865C9.17848 12.5865 8.70777 12.6574 8.63383 12.3603C8.54979 11.8673 8.54979 11.3638 8.63383 10.8708C8.65161 10.7004 8.92476 10.7536 9.08354 10.7522C10.3029 10.7522 11.5219 10.7522 12.7413 10.7522V10.6732"
            fill="#D41E1E" />
        <path
            d="M12.896 16.4203C11.7797 16.4203 10.6649 16.4108 9.54979 16.4203C9.18373 16.4203 9.03948 16.329 9.03423 15.9297C9.01645 14.6228 8.99706 14.6092 10.2904 14.5847C12.2694 14.5465 14.2484 14.5411 16.2258 14.4947C16.6508 14.4838 16.7482 14.6215 16.7482 15.0235C16.7482 16.4966 16.7619 16.4966 15.2944 16.4953H12.8948V16.4162"
            fill="#D41E1E" />
        <path
            d="M13.2486 18.7082C14.2579 18.7082 15.2672 18.7204 16.2753 18.7082C16.6127 18.7082 16.7428 18.7722 16.7497 19.1456C16.78 20.7237 16.7937 20.7346 15.2083 20.7196C13.5472 20.7033 11.8879 20.6501 10.226 20.6406C9.7816 20.6406 9.60057 20.5179 9.60582 20.0341C9.61956 18.7749 9.59493 18.7709 10.8499 18.7559C11.6495 18.7463 12.449 18.7559 13.2499 18.7559L13.2486 18.7082Z"
            fill="#D41E1E" />
    </g>
</svg>