<svg xmlns="http://www.w3.org/2000/svg" width="31" height="32" viewBox="0 0 31 32" fill="none">
    <path
        d="M1.88943 0.0396538C0.799556 0.179029 0.26176 0.510649 0.071389 1.15466C0.0333149 1.29404 0 1.52954 0 1.68814C0 1.91402 2.27493 23.7864 2.78893 28.4675C2.9793 30.241 3.19347 30.7264 3.92639 31.0724L4.21195 31.207L7.53392 31.2214L10.8511 31.2358V30.9955V30.7552L7.67669 30.7408C4.50226 30.7264 4.49751 30.7264 4.23099 30.6159C3.82169 30.4525 3.59324 30.1449 3.45999 29.5922C3.33149 29.0827 0.509241 2.04378 0.542556 1.68333C0.58063 1.28923 0.637741 1.15947 0.84239 0.943195C1.03752 0.741341 1.28976 0.640411 1.78472 0.568321C2.23685 0.505842 27.6656 0.501036 28.2224 0.568321C28.8364 0.640411 29.0934 0.70289 29.3028 0.842268C29.6455 1.06815 29.674 1.15466 29.6693 2.0582C29.6645 2.74066 29.4694 4.70635 28.2796 16.0439C27.5133 23.301 26.8756 29.3134 26.8613 29.4047C26.7994 29.7315 26.5757 30.1449 26.352 30.3515C25.9237 30.7504 26.1807 30.7264 22.4732 30.7408L19.1798 30.7552V30.9955V31.2358L22.5732 31.2214L25.9618 31.207L26.2235 31.082C26.7233 30.8417 27.0802 30.4044 27.2801 29.7988C27.342 29.6066 27.48 28.4483 27.7465 25.9203C29.2219 11.8722 30.2308 2.16874 30.2546 1.83712C30.3308 0.741341 29.7121 0.20306 28.1986 0.0396538C27.6942 -0.0132122 2.313 -0.0132122 1.88943 0.0396538Z"
        fill="white" />
    <path
        d="M24.2723 4.84087C18.6944 7.65722 15.4677 10.8244 13.5925 15.3133C13.345 15.9092 12.7549 17.6635 12.7549 17.8028C12.7549 17.8605 13.3355 17.8701 16.2958 17.8701H19.8367L19.87 17.7115C19.9319 17.4376 20.2555 16.5148 20.4792 15.9717C21.1074 14.477 22.1021 13.1265 23.1729 12.3287C23.6441 11.9779 24.2723 11.6318 24.8625 11.4011C25.1766 11.2714 25.4526 11.156 25.4764 11.1416C25.4954 11.1272 25.505 9.56523 25.5002 7.67164L25.4859 4.22569L24.2723 4.84087Z"
        fill="white" />
    <path
        d="M5.23511 7.63321V10.8533H10.1514H15.0725L15.5246 10.2862C16.0386 9.64695 17.1666 8.47907 17.8662 7.85429C19.0703 6.78734 20.8883 5.51854 22.3827 4.70631C22.635 4.56693 22.8444 4.44678 22.8444 4.43236C22.8444 4.42275 18.8847 4.41314 14.0397 4.41314H5.23511V7.63321Z"
        fill="white" />
    <path
        d="M24.1057 18.3315C24.0009 18.3699 23.8344 18.4805 23.7392 18.5766C23.6392 18.6727 23.5536 18.7448 23.5441 18.7304C23.5345 18.7208 23.4774 18.6391 23.4203 18.5525L23.3156 18.3987H22.6255H21.9402V20.8739V23.349H22.6303H23.3204V21.6284C23.3204 20.6864 23.3442 19.8262 23.368 19.7204C23.4679 19.2686 23.9629 19.1725 24.2627 19.5426C24.3055 19.6003 24.3198 20.0616 24.3198 21.4842V23.349H25.0099H25.7048L25.6905 21.1719L25.6762 18.9995L25.562 18.764C25.4858 18.6054 25.3811 18.4901 25.2336 18.3939C25.0385 18.269 24.9718 18.2546 24.6577 18.2594C24.4578 18.2594 24.2104 18.293 24.1057 18.3315Z"
        fill="white" />
    <path
        d="M4.75928 20.8739V23.349H6.06808H7.37687V22.8924V22.4358H6.75817H6.13946V21.8351V21.2343H6.73437H7.32928V20.7778V20.3212H6.73437H6.13946V19.8165V19.3119H6.75817H7.37687V18.8553V18.3987H6.06808H4.75928V20.8739Z"
        fill="white" />
    <path
        d="M8.09082 20.8739V23.349H9.32823H10.5656V22.8924V22.4358H10.0183H9.47101V20.4173V18.3987H8.78091H8.09082V20.8739Z"
        fill="white" />
    <path
        d="M11.0415 20.8739V23.349H12.3503H13.6591V22.8924V22.4358H13.0404H12.4217V21.8351V21.2343H13.0166H13.6115V20.7778V20.3212H13.0166H12.4217V19.8165V19.3119H13.0404H13.6591V18.8553V18.3987H12.3503H11.0415V20.8739Z"
        fill="white" />
    <path
        d="M14.097 18.4564C14.1113 18.4901 14.2922 19.6051 14.4968 20.9315L14.8728 23.349H15.9484H17.0287L17.4904 20.9796C17.7426 19.682 17.9615 18.567 17.9758 18.5045C17.9996 18.3987 17.9949 18.3987 17.4809 18.3987H16.9669L16.6623 19.9463C16.4957 20.8018 16.3386 21.5371 16.3148 21.5804C16.2672 21.6765 16.1578 21.6957 16.1102 21.6188C16.0864 21.5852 15.6152 18.5381 15.6105 18.4084C15.6105 18.4036 15.2678 18.3987 14.8442 18.3987C14.2493 18.3987 14.0827 18.4132 14.097 18.4564Z"
        fill="white" />
    <path
        d="M18.4658 20.8739V23.349H19.7746H21.0834V22.8924V22.4358H20.4647H19.846V21.8351V21.2343H20.4409H21.0358V20.7778V20.3212H20.4409H19.846V19.8165V19.3119H20.4647H21.0834V18.8553V18.3987H19.7746H18.4658V20.8739Z"
        fill="white" />
    <path
        d="M11.6888 24.0315C11.5984 24.4737 11.2319 30.5918 11.2319 31.6972V32H15.0251H18.8134L18.7849 30.1833C18.7516 28.4916 18.7992 25.6272 18.8753 24.4401L18.9086 23.9258H15.3106H11.7079L11.6888 24.0315Z"
        fill="white" />
    <path
        d="M20.2458 24.3296C19.608 24.7285 19.8793 25.7041 20.6265 25.7041C20.9311 25.7041 21.1405 25.5695 21.2785 25.2908C21.5117 24.8006 21.2071 24.2767 20.6693 24.2286C20.4885 24.2142 20.4028 24.2334 20.2458 24.3296ZM20.9359 24.3969C21.507 24.69 21.2928 25.6224 20.6551 25.6224C20.241 25.6224 19.9697 25.3533 19.9792 24.9592C19.984 24.4593 20.4885 24.1614 20.9359 24.3969Z"
        fill="white" />
    <path
        d="M20.322 24.9592C20.322 25.2908 20.3363 25.3677 20.3934 25.3677C20.4458 25.3677 20.4648 25.3148 20.4648 25.1947C20.4648 25.0264 20.4696 25.0264 20.6409 25.0409C20.7979 25.0553 20.8265 25.0745 20.8455 25.1947C20.8598 25.2716 20.8979 25.3436 20.9312 25.3581C20.9978 25.3773 20.9978 25.3581 20.9407 25.1033C20.9169 24.9832 20.9169 24.8919 20.9455 24.8582C20.974 24.8246 20.974 24.7573 20.9407 24.6756C20.8979 24.5603 20.8741 24.5506 20.6076 24.5506H20.322V24.9592ZM20.836 24.7765C20.8217 24.8919 20.7979 24.9111 20.6457 24.9255C20.4743 24.9399 20.4648 24.9351 20.4648 24.7958C20.4648 24.6516 20.4743 24.6468 20.6599 24.6468C20.8408 24.6468 20.8503 24.6516 20.836 24.7765Z"
        fill="white" />
</svg>