<svg xmlns="http://www.w3.org/2000/svg" width="53" height="40" viewBox="0 0 53 40" fill="none">
    <mask id="mask0_113_281" style="mask-type:luminance" maskUnits="userSpaceOnUse" x="0" y="0" width="53"
        height="40">
        <path d="M52.289 0H0.622314V40H52.289V0Z" fill="white" />
    </mask>
    <g mask="url(#mask0_113_281)">
        <mask id="mask1_113_281" style="mask-type:luminance" maskUnits="userSpaceOnUse" x="0" y="0"
            width="53" height="40">
            <path d="M52.289 0H0.622314V40H52.289V0Z" fill="white" />
        </mask>
        <g mask="url(#mask1_113_281)">
            <path
                d="M26.4419 28.6017C25.8309 29.0912 25.1772 29.5259 24.4886 29.9007C22.7079 30.9043 20.7446 31.5479 18.7119 31.7945C15.8502 32.1565 12.9432 31.7447 10.2982 30.6026C7.65323 29.4606 5.36822 27.6307 3.68522 25.3066C2.23189 23.3078 1.26189 21.0039 0.850554 18.5734C0.438887 16.1429 0.597226 13.6511 1.31256 11.291C1.92789 9.21846 2.97522 7.29726 4.38689 5.65176C6.76022 2.79376 10.0906 0.87791 13.7699 0.254031C17.0639 -0.340396 20.4629 0.117276 23.4776 1.56117C24.5372 2.06959 25.5396 2.68795 26.4679 3.40589L26.4472 3.46046C26.3879 3.46152 26.3316 3.48496 26.2892 3.52596C25.8766 3.89026 25.4556 4.23412 25.0746 4.62436C24.6936 5.01456 24.3415 5.42936 23.9922 5.85232C23.5395 6.41179 23.1196 6.99626 22.7336 7.60292C22.5039 7.95222 22.3332 8.33016 22.1339 8.69446C21.8259 9.29859 21.5556 9.92106 21.3252 10.5583C21.1699 10.9554 21.0679 11.377 20.9482 11.7863C20.8822 12.0087 20.8272 12.2352 20.7832 12.4685C20.6722 12.9887 20.5889 13.5143 20.5329 14.0431C20.4746 14.4451 20.4399 14.8501 20.4299 15.2561C20.4029 15.9947 20.4212 16.7342 20.4849 17.4706C20.5439 17.8622 20.5562 18.2647 20.6306 18.6508C20.7329 19.2506 20.8742 19.8431 21.0542 20.4246C21.2316 20.9704 21.3996 21.508 21.6042 22.0415C21.8752 22.7159 22.1969 23.3691 22.5672 23.9953C22.9229 24.6087 23.3202 25.1973 23.7569 25.7568C24.2002 26.3232 24.6736 26.8657 25.1749 27.3819C25.3619 27.5797 25.5986 27.7257 25.7856 27.9277C25.9149 28.0741 26.0612 28.2047 26.2216 28.3165C26.2796 28.3445 26.3296 28.3855 26.3686 28.4362C26.4076 28.4869 26.4339 28.5459 26.4459 28.6085"
                fill="#FE3423" />
            <path
                d="M26.4427 28.6018C26.431 28.5392 26.4044 28.4802 26.3657 28.4295C26.3267 28.3788 26.2764 28.3379 26.2187 28.3099C26.058 28.1976 25.9117 28.0666 25.7827 27.9196C25.597 27.7177 25.3604 27.5717 25.172 27.3739C24.669 26.8577 24.1944 26.3152 23.7497 25.7488C23.313 25.1892 22.9157 24.6007 22.56 23.9873C22.19 23.361 21.868 22.7079 21.5974 22.0334C21.3977 21.4999 21.2287 20.9569 21.047 20.4166C20.867 19.8351 20.7257 19.2425 20.6234 18.6428C20.549 18.2539 20.5354 17.8541 20.4777 17.4625C20.414 16.7262 20.3957 15.9866 20.4227 15.248C20.433 14.8421 20.4674 14.437 20.5257 14.0351C20.5817 13.5063 20.665 12.9807 20.776 12.4605C20.8214 12.2326 20.878 12.0075 20.941 11.7783C21.0594 11.3689 21.1627 10.9528 21.3167 10.5503C21.547 9.91299 21.8174 9.29053 22.1254 8.68643C22.3247 8.32076 22.4967 7.93873 22.725 7.59489C23.111 6.98823 23.531 6.40376 23.9837 5.84429C24.333 5.42543 24.6864 5.00926 25.066 4.61629C25.4457 4.22336 25.8734 3.88223 26.2807 3.51793C26.323 3.47689 26.3797 3.45349 26.4387 3.45243C26.5557 3.44153 26.612 3.57933 26.729 3.56839C26.7604 3.61813 26.798 3.66393 26.8404 3.70486C27.1397 3.93956 27.4264 4.19009 27.6987 4.45529C27.997 4.73636 28.2777 5.03383 28.5527 5.33946C29.004 5.85016 29.427 6.38489 29.8197 6.94133C30.4487 7.83739 30.979 8.79803 31.4014 9.80666C31.5664 10.1914 31.7274 10.5789 31.8524 10.976C32.068 11.6401 32.242 12.3168 32.3737 13.0022C32.5057 13.6775 32.587 14.3616 32.617 15.0488C32.6857 16.2912 32.6157 17.5372 32.408 18.7642C32.2707 19.5188 32.0754 20.2569 31.8677 20.9951C31.7714 21.343 31.5924 21.6568 31.4797 22.002C31.3474 22.409 31.175 22.802 30.9654 23.1755C30.76 23.5837 30.5337 23.9813 30.287 24.3666C30.0604 24.6927 29.865 25.0407 29.631 25.3586C29.3794 25.7038 29.103 26.0312 28.8307 26.3614C28.4454 26.8281 28.0054 27.2442 27.5927 27.6877C27.5724 27.7086 27.5487 27.7261 27.5227 27.7395C27.3057 27.8733 27.116 28.0459 26.9627 28.2485C26.8104 28.3319 26.6714 28.4372 26.55 28.5609L26.4347 28.6018"
                fill="#FF5815" />
            <path
                d="M26.5572 28.5608C26.6785 28.4369 26.8175 28.3316 26.9698 28.2483C27.0215 28.382 27.1132 28.4968 27.2322 28.5777C27.3515 28.6586 27.4925 28.7017 27.6369 28.7013C27.6785 28.6915 27.7218 28.6925 27.7628 28.7043C27.8035 28.716 27.8408 28.738 27.8708 28.7682C27.9835 28.8787 28.0645 28.8418 28.1555 28.7218C28.2709 28.5689 28.4305 28.5853 28.4772 28.7668C28.5132 28.9032 28.6258 29.0192 28.6218 29.1761C28.6175 29.333 28.7152 29.3808 28.8528 29.3712C28.9962 29.369 29.1349 29.4212 29.2405 29.5172C29.5349 29.7287 29.8569 29.9429 30.2489 29.7069C30.2685 29.693 30.2918 29.6845 30.3158 29.6824C30.3402 29.6802 30.3645 29.6844 30.3865 29.6946C30.4428 29.726 30.5362 29.7083 30.5502 29.7956C30.5638 29.8829 30.5018 29.932 30.4125 29.9511C30.3232 29.9702 30.2488 29.988 30.2858 30.0958C30.3232 30.2035 30.3615 30.3031 30.5005 30.3018C30.5252 30.3049 30.5502 30.299 30.5705 30.2852C30.5912 30.2713 30.6058 30.2506 30.6118 30.2267C30.6165 30.1885 30.6258 30.1509 30.6395 30.1149C30.7345 29.9457 30.8842 29.9429 30.9722 30.1149C31.0102 30.1796 31.0712 30.2282 31.1429 30.2513C31.3932 30.3714 31.6932 30.4041 31.8665 30.6606C31.8762 30.6777 31.8918 30.6908 31.9105 30.6975C31.9292 30.7043 31.9495 30.7043 31.9682 30.6975C32.0285 30.677 32.0245 30.632 32.0192 30.5788C31.9972 30.3223 31.9972 30.3209 32.2392 30.3059C32.3172 30.313 32.3959 30.2953 32.4632 30.2554C32.5169 30.2131 32.5842 30.1544 32.6422 30.2226C32.6998 30.2909 32.6022 30.3373 32.5748 30.3946C32.5472 30.4468 32.5012 30.4871 32.4455 30.5078C32.4242 30.5141 32.4042 30.5247 32.3872 30.5388C32.3702 30.5529 32.3562 30.5703 32.3458 30.5899C32.3358 30.6095 32.3299 30.631 32.3282 30.653C32.3265 30.675 32.3295 30.6971 32.3369 30.7179C32.3449 30.7715 32.3742 30.8198 32.4178 30.8522C32.4615 30.8846 32.5165 30.8987 32.5705 30.8912C32.7688 30.8778 32.9662 30.9254 33.1358 31.0277C33.4015 31.1697 33.6909 31.2621 33.9902 31.3006C34.2665 31.3598 34.5478 31.3931 34.8305 31.4002C35.0382 31.4097 35.2512 31.3892 35.4632 31.4165C35.5085 31.4165 35.5552 31.3892 35.6005 31.3811C35.6568 31.365 35.7162 31.3617 35.7738 31.3715C36.0038 31.4233 36.2405 31.4403 36.4755 31.422C36.5638 31.4175 36.6525 31.4262 36.7382 31.4479C36.8802 31.485 37.0295 31.485 37.1715 31.4479C37.4025 31.4097 37.6392 31.2678 37.8715 31.4643C37.8932 31.4734 37.9165 31.478 37.9402 31.478C37.9639 31.478 37.9872 31.4734 38.0092 31.4643C38.1519 31.4328 38.2975 31.4131 38.4435 31.4056C38.5908 31.3811 38.7642 31.3933 38.8658 31.2433C38.8822 31.2187 38.9068 31.2008 38.9355 31.1928C38.9639 31.1848 38.9945 31.1872 39.0215 31.1996C39.3485 31.2638 39.6869 31.245 40.0049 31.145C40.5272 31.022 41.0395 30.8615 41.5385 30.6647C41.7625 30.5856 42.0542 30.6156 42.1822 30.3345C42.1945 30.3072 42.2729 30.3127 42.3195 30.2963C42.6255 30.244 42.9215 30.1455 43.1972 30.0043C43.4159 29.8365 43.6828 29.7737 43.9095 29.6264C44.1848 29.449 44.5492 29.4067 44.7129 29.0711C44.7278 29.0476 44.7515 29.031 44.7789 29.0247C45.1565 28.8898 45.5032 28.681 45.7982 28.4107C45.9759 28.3101 46.1405 28.1887 46.2892 28.0491C46.5822 27.7435 46.9178 27.4788 47.2395 27.2018C47.3772 27.0872 47.5408 26.9985 47.5792 26.817C47.6098 26.7162 47.6662 26.625 47.7428 26.5523C47.8942 26.3681 48.1555 26.2876 48.2298 26.027C48.2298 26.0052 48.2738 25.9915 48.2958 25.9779C48.6325 25.7297 48.9085 25.4092 49.1032 25.0405C49.2775 24.7502 49.4732 24.4734 49.6892 24.2123C49.7568 24.1559 49.8049 24.0801 49.8269 23.9953C49.8715 23.8054 49.9568 23.6272 50.0772 23.4727C50.1638 23.3809 50.2362 23.2764 50.2915 23.163C50.3175 22.8858 50.4385 22.6258 50.6342 22.4262C50.6475 22.2319 50.7105 22.0441 50.8172 21.8804C50.9285 21.4589 51.0772 21.048 51.2612 20.6524C51.2842 20.6202 51.2958 20.5814 51.2942 20.5419C51.2598 20.3004 51.4168 20.1203 51.4908 19.9143C51.5172 19.8406 51.5775 19.7778 51.5832 19.7014C51.6202 19.2389 51.8059 18.805 51.8499 18.337C51.9459 17.7348 51.9962 17.1264 52.0012 16.5168C52.0012 16.3886 52.0768 16.2808 52.0398 16.1443C51.9782 15.9178 51.9815 15.6787 52.0495 15.4539C52.0682 15.4137 52.0779 15.3699 52.0779 15.3257C52.0779 15.2814 52.0682 15.2376 52.0495 15.1974C51.8735 14.9709 51.9752 14.7089 51.9668 14.4743C51.9498 14.1306 51.9002 13.7893 51.8185 13.455C51.7888 13.2246 51.7428 12.9967 51.6808 12.7728C51.6395 12.6636 51.6879 12.5313 51.6395 12.3907C51.5835 12.1469 51.4905 11.9128 51.3645 11.6962C51.3452 11.669 51.3548 11.6198 51.3535 11.5816C51.3258 11.2438 51.2435 10.9126 51.1102 10.6006C51.0082 10.3277 50.9132 10.0548 50.7935 9.80241C50.6739 9.54998 50.5875 9.29348 50.4608 9.06014C50.2902 8.75041 50.0908 8.44888 49.9175 8.13371C49.8598 8.02728 49.7455 7.97678 49.7072 7.86081C49.5595 7.50524 49.3675 7.16964 49.1348 6.86204C49.0178 6.68194 48.8488 6.52774 48.7222 6.34218C48.6465 6.20681 48.5542 6.08124 48.4472 5.96831C48.0579 5.61631 47.7512 5.19058 47.3922 4.81128C47.2092 4.61888 46.9712 4.50018 46.7982 4.29824C46.5805 3.98828 46.2805 3.74414 45.9315 3.59284C45.8879 3.56981 45.8505 3.53658 45.8228 3.49594C45.4442 3.16446 45.0408 2.86161 44.6165 2.58996C44.5648 2.54417 44.4988 2.51763 44.4295 2.51492C44.4048 2.51564 44.3805 2.50982 44.3592 2.49806C44.3375 2.4863 44.3195 2.46904 44.3072 2.44806C44.2785 2.38554 44.2335 2.33171 44.1772 2.29214C44.1205 2.25257 44.0542 2.22868 43.9852 2.22293C43.7638 2.15662 43.5595 2.04402 43.3855 1.89273C43.3692 1.88182 43.3568 1.86272 43.3388 1.85862C42.9785 1.76038 42.6759 1.53252 42.3252 1.41245C42.0392 1.31421 41.7515 1.21734 41.4778 1.09317C41.2315 0.978713 40.9739 0.89 40.7089 0.82847C40.3955 0.718033 40.0675 0.653233 39.7352 0.636083C39.7155 0.63414 39.6965 0.627083 39.6802 0.615617C39.4972 0.516013 39.2675 0.550123 39.0985 0.479173C38.8922 0.42522 38.6788 0.403127 38.4655 0.41368C38.3325 0.420863 38.1992 0.40611 38.0709 0.370017C37.8975 0.292243 37.7228 0.172172 37.5288 0.330448C37.5138 0.342727 37.4712 0.330448 37.4452 0.319532C37.2038 0.250825 36.9525 0.225865 36.7025 0.245852C36.2732 0.213105 35.8345 0.245852 35.4069 0.233572C34.9789 0.221292 34.5692 0.370017 34.1399 0.39594C33.7625 0.434713 33.3898 0.51012 33.0272 0.621073C32.7005 0.715253 32.3658 0.780097 32.0272 0.814823C31.8908 0.830777 31.7602 0.87745 31.6448 0.95127C31.5625 1.00149 31.4725 1.03791 31.3782 1.05906C31.0755 1.11799 30.7809 1.21234 30.5005 1.34014C30.0379 1.48037 29.6075 1.70938 29.2338 2.01417C29.2228 2.02387 29.2099 2.03128 29.1959 2.03597C29.1822 2.04066 29.1672 2.04253 29.1525 2.04146C28.8929 2.01826 28.7125 2.19564 28.5132 2.30616C27.8982 2.64318 27.3852 3.13711 26.7622 3.46594C26.7249 3.48504 26.7195 3.53144 26.7155 3.56828C26.5985 3.57918 26.5422 3.44138 26.4265 3.45228L26.4472 3.39771C28.9659 1.43174 32.0262 0.268767 35.2242 0.0619824C38.4225 -0.144803 41.6088 0.6143 44.3635 2.2393C46.5058 3.49344 48.3262 5.22324 49.6812 7.29281C51.0362 9.36241 51.8888 11.7154 52.1725 14.1671C52.4565 16.6187 52.1632 19.1022 51.3165 21.4226C50.4695 23.743 49.0919 25.837 47.2919 27.5402C45.3935 29.3364 43.0772 30.6395 40.5485 31.3336C38.0202 32.0277 35.3582 32.0914 32.7988 31.5189C30.6172 31.0312 28.5662 30.0853 26.7842 28.745C26.7058 28.6863 26.6315 28.6222 26.5558 28.5621"
                fill="#FEA016" />
            <path
                d="M4.25555 36.0613C4.42222 35.9563 4.56389 35.8743 4.69856 35.7883C4.99089 35.575 5.35255 35.4763 5.71389 35.512C6.07489 35.5473 6.41022 35.7147 6.65455 35.981C6.74388 36.0547 6.80156 36.2007 6.91423 36.1993C7.02723 36.1977 7.08222 36.0533 7.16055 35.9713C7.36489 35.77 7.61755 35.6237 7.89455 35.5463C8.17189 35.469 8.46456 35.4633 8.74456 35.5293C9.02456 35.5957 9.28289 35.732 9.49522 35.925C9.70722 36.1183 9.86622 36.362 9.95689 36.633C9.99122 36.745 10.0079 36.8613 10.0062 36.9783C10.0062 37.8257 10.0062 38.673 10.0062 39.5203C10.0062 39.7643 10.0062 39.7643 9.76689 39.7673C9.61022 39.7673 9.45355 39.7673 9.29522 39.7673C9.18255 39.7673 9.14122 39.7223 9.14256 39.609C9.14256 39.287 9.14256 38.9663 9.14256 38.6443C9.14256 38.1967 9.14256 37.748 9.14256 37.3003C9.16989 37.0943 9.11655 36.8857 8.99355 36.7177C8.87055 36.5497 8.68689 36.4347 8.48089 36.397C8.24755 36.3307 7.99889 36.3417 7.77255 36.4283C7.54622 36.515 7.35455 36.6727 7.22655 36.8773C7.16322 37.0097 7.13456 37.1553 7.14256 37.3017C7.14256 37.9743 7.14256 38.6457 7.14256 39.3183V39.5517C7.13456 39.766 7.13455 39.7687 6.93222 39.7727C6.76589 39.7727 6.59922 39.7657 6.43155 39.7727C6.26388 39.7793 6.22789 39.718 6.23222 39.568C6.23222 38.827 6.23222 38.0877 6.23222 37.3467C6.23889 37.2007 6.22089 37.0543 6.17856 36.914C6.12656 36.745 6.02256 36.5967 5.88089 36.4897C5.73922 36.3827 5.56689 36.3227 5.38889 36.318C5.25089 36.3073 5.11188 36.3163 4.97622 36.3453C4.76455 36.3783 4.57322 36.4893 4.43989 36.6557C4.30622 36.8223 4.24055 37.0323 4.25555 37.2443C4.25555 37.9647 4.26388 38.6853 4.26955 39.4057V39.639C4.26955 39.7167 4.24589 39.7753 4.15522 39.7753H3.47722C3.40422 39.7753 3.37255 39.733 3.36988 39.6663C3.36722 39.5993 3.36988 39.549 3.36988 39.4903C3.36988 38.2823 3.36622 37.0743 3.35889 35.8663C3.35889 35.6097 3.35889 35.6097 3.61056 35.6017H3.78655C4.22388 35.6017 4.22389 35.6017 4.25989 36.0723"
                fill="white" />
            <path
                d="M48.8461 39.3657C48.6837 39.4623 48.5614 39.539 48.4334 39.6113C48.2034 39.7433 47.9484 39.8277 47.6844 39.8593C47.4204 39.891 47.1524 39.869 46.8974 39.7947C46.6421 39.7203 46.4047 39.5953 46.1997 39.4273C45.9947 39.2593 45.8261 39.0517 45.7044 38.817C45.4704 38.4297 45.3574 37.9823 45.3797 37.531C45.4024 37.08 45.5594 36.6457 45.8311 36.2833C45.9797 36.0583 46.1747 35.8677 46.4037 35.724C46.6327 35.5803 46.8901 35.4867 47.1587 35.45C47.4271 35.413 47.7004 35.4337 47.9601 35.5103C48.2197 35.587 48.4601 35.718 48.6644 35.8943C48.7071 35.93 48.7304 35.9953 48.8021 35.9993C48.8971 35.9543 48.8637 35.863 48.8654 35.7947C48.8654 35.26 48.8751 34.7237 48.8804 34.189C48.8804 33.894 48.8804 33.8943 49.1897 33.8873H49.5131C49.7621 33.8873 49.7674 33.8873 49.7661 34.152C49.7607 35.943 49.7544 37.7343 49.7471 39.5253C49.7471 39.7287 49.7471 39.7313 49.5391 39.7367C49.3921 39.7367 49.2447 39.7367 49.0977 39.7367C48.8764 39.7367 48.8764 39.7367 48.8624 39.5143C48.8624 39.4773 48.8624 39.4407 48.8487 39.3643M48.9341 37.664C48.9321 37.5763 48.9254 37.489 48.9134 37.402C48.8791 37.1647 48.7787 36.9417 48.6241 36.7573C48.4694 36.573 48.2664 36.435 48.0374 36.3583C47.8241 36.2793 47.5924 36.2633 47.3701 36.3117C47.1481 36.36 46.9444 36.471 46.7844 36.6313C46.5451 36.8577 46.3887 37.1563 46.3387 37.4803C46.2891 37.8047 46.3491 38.136 46.5091 38.4227C46.6021 38.5917 46.7331 38.737 46.8917 38.8477C47.0501 38.9583 47.2321 39.0317 47.4237 39.0617C47.6154 39.0917 47.8114 39.078 47.9967 39.021C48.1817 38.9643 48.3514 38.866 48.4924 38.7337C48.6424 38.6 48.7604 38.4347 48.8374 38.2497C48.9147 38.065 48.9491 37.8653 48.9381 37.6653"
                fill="white" />
            <path
                d="M40.2879 36.0257C40.3746 35.9317 40.3389 35.828 40.3416 35.7393C40.3416 35.619 40.3869 35.562 40.5149 35.566C40.6813 35.566 40.8493 35.566 41.0156 35.566C41.2233 35.566 41.2303 35.566 41.2316 35.7817V37.2413C41.2316 38.0013 41.2246 38.7627 41.2163 39.52C41.2163 39.7467 41.2083 39.748 40.9923 39.7533C40.8449 39.7533 40.6979 39.7533 40.5506 39.7533C40.4036 39.7533 40.3113 39.703 40.3279 39.5363C40.3263 39.494 40.3203 39.452 40.3099 39.411C40.1766 39.444 40.0523 39.5063 39.9469 39.5937C39.5246 39.852 39.0186 39.94 38.5329 39.8403C38.0469 39.7407 37.6179 39.4607 37.3336 39.0577C36.9696 38.572 36.8093 37.9653 36.8859 37.365C36.9629 36.7647 37.2713 36.2173 37.7463 35.8373C38.0689 35.585 38.4669 35.4457 38.8779 35.441C39.2889 35.4363 39.6899 35.5667 40.0183 35.8117C40.1106 35.877 40.2026 35.948 40.2936 36.0203M39.1009 39.0793C39.2779 39.0927 39.4553 39.0563 39.6126 38.9743C39.8103 38.876 39.9826 38.7347 40.1173 38.5607C40.2516 38.3867 40.3446 38.1847 40.3889 37.97C40.4333 37.755 40.4279 37.533 40.3733 37.3207C40.3186 37.1083 40.2159 36.911 40.0733 36.7433C39.9639 36.615 39.8293 36.51 39.6779 36.4343C39.5263 36.359 39.3609 36.3147 39.1916 36.3043C39.0226 36.2937 38.8529 36.3173 38.6933 36.3737C38.5333 36.43 38.3866 36.5177 38.2619 36.6317C38.0026 36.8603 37.8363 37.1753 37.7943 37.517C37.7619 37.7067 37.7713 37.9013 37.8216 38.087C37.8719 38.273 37.9623 38.4457 38.0859 38.5937C38.2096 38.742 38.3643 38.862 38.5389 38.9453C38.7136 39.029 38.9043 39.0743 39.0983 39.078"
                fill="white" />
            <path
                d="M14.3242 36.079C14.3372 36.0393 14.3472 35.9987 14.3545 35.9573C14.3695 35.5973 14.3696 35.5837 14.7449 35.593C15.3406 35.6083 15.2455 35.4937 15.2485 36.0747C15.2485 37.1663 15.2485 38.258 15.2485 39.3493C15.2485 39.4273 15.2415 39.5063 15.2485 39.5827C15.2595 39.7193 15.2142 39.7807 15.0669 39.7723C14.9199 39.7643 14.7532 39.7723 14.5952 39.7723C14.3765 39.7723 14.3766 39.7723 14.3586 39.546C14.3586 39.509 14.3502 39.471 14.3449 39.4217C14.2115 39.4603 14.0879 39.5257 13.9815 39.614C13.6389 39.8287 13.2362 39.9293 12.8319 39.9013C12.4275 39.8737 12.0425 39.719 11.7329 39.46C11.2795 39.0977 10.9806 38.579 10.8959 38.0077C10.8109 37.4363 10.9462 36.8543 11.2749 36.3777C11.4189 36.141 11.6139 35.9387 11.8459 35.785C12.0775 35.6313 12.3409 35.53 12.6165 35.4887C12.8922 35.4473 13.1735 35.4667 13.4409 35.5453C13.7082 35.624 13.9549 35.76 14.1632 35.9437C14.2072 35.9807 14.2512 36.0173 14.3255 36.0803M11.8099 37.7557C11.8062 37.937 11.8395 38.117 11.9075 38.2853C11.9725 38.4563 12.0735 38.6117 12.2042 38.7407C12.3345 38.8697 12.4915 38.9697 12.6642 39.0333C12.8369 39.0973 13.0212 39.1237 13.2052 39.111C13.3889 39.098 13.5679 39.0463 13.7299 38.9593C14.0415 38.7773 14.2736 38.4863 14.3799 38.1433C14.4862 37.8007 14.4595 37.4307 14.3049 37.1063C14.2102 36.874 14.0472 36.6753 13.8372 36.536C13.6275 36.3967 13.3802 36.323 13.1275 36.3247C12.9449 36.3283 12.7649 36.369 12.5985 36.4437C12.4322 36.5187 12.2832 36.6263 12.1599 36.76C12.0369 36.894 11.9425 37.0513 11.8825 37.2223C11.8225 37.3937 11.7969 37.575 11.8099 37.7557Z"
                fill="white" />
            <path
                d="M27.1072 38.0203H25.7812C25.6136 38.0203 25.5929 38.0517 25.6229 38.2057C25.6546 38.3633 25.7192 38.5127 25.8126 38.6443C25.9059 38.7757 26.0259 38.8863 26.1649 38.969C26.3039 39.0517 26.4589 39.1043 26.6196 39.124C26.7806 39.1437 26.9439 39.1297 27.0989 39.083C27.3926 39.03 27.6729 38.92 27.9243 38.7597C28.0176 38.6873 28.1086 38.7133 28.1306 38.8157C28.1863 38.9667 28.2709 39.1057 28.3796 39.225C28.4426 39.3233 28.4456 39.4093 28.3259 39.4623C27.9599 39.668 27.5696 39.8273 27.1636 39.936C26.8766 39.9983 26.5792 40.001 26.2912 39.9433C26.0032 39.8857 25.7303 39.7693 25.4903 39.601C25.2499 39.433 25.0476 39.2173 24.8962 38.9673C24.7449 38.7177 24.6476 38.439 24.6106 38.1497C24.5343 37.7757 24.5549 37.3883 24.6709 37.0243C24.7869 36.6603 24.9942 36.3317 25.2736 36.069C25.5976 35.7743 26.0043 35.5843 26.4396 35.5243C26.8749 35.4643 27.3182 35.5373 27.7109 35.7333C27.9439 35.8707 28.1443 36.056 28.2989 36.2767C28.4533 36.4977 28.5583 36.7487 28.6063 37.0133C28.6609 37.2827 28.6859 37.557 28.6806 37.832C28.6806 37.9683 28.6352 38.0203 28.4949 38.0187C28.0329 38.0187 27.5719 38.0187 27.1112 38.0187L27.1072 38.0203ZM26.6946 37.364H27.6366C27.7743 37.364 27.8033 37.3107 27.7743 37.1823C27.7523 37.002 27.6782 36.832 27.5609 36.6927C27.4432 36.5533 27.2876 36.451 27.1126 36.398C26.8302 36.3087 26.5262 36.3127 26.2462 36.4087C26.0759 36.4607 25.9246 36.5613 25.8116 36.698C25.6986 36.8343 25.6289 37.001 25.6106 37.177C25.5886 37.3133 25.6299 37.3707 25.7812 37.3653C26.0852 37.3543 26.3892 37.3653 26.6932 37.3653"
                fill="white" />
            <path
                d="M18.0514 39.9077C17.4647 39.9153 16.8877 39.7607 16.3844 39.4617C16.2 39.3633 16.2044 39.3563 16.3184 39.1737C16.5604 38.7767 16.559 38.7767 17.006 38.9293C17.4327 39.1107 17.903 39.167 18.361 39.0917C18.4867 39.0693 18.6087 39.029 18.7227 38.9717C18.7917 38.945 18.8514 38.8987 18.8947 38.839C18.938 38.779 18.9627 38.7083 18.966 38.6347C18.966 38.471 18.8424 38.396 18.72 38.3357C18.4964 38.2343 18.2584 38.1687 18.0144 38.1407C17.76 38.1163 17.5084 38.0707 17.262 38.0043C17.094 37.9627 16.937 37.8863 16.8014 37.78C16.6654 37.6737 16.554 37.54 16.474 37.388C16.3944 37.2357 16.348 37.0683 16.338 36.897C16.3284 36.726 16.3554 36.5543 16.4174 36.3943C16.4794 36.2343 16.574 36.089 16.6954 35.967C16.8164 35.845 16.9614 35.7487 17.1217 35.6847C17.6424 35.4393 18.239 35.4057 18.7844 35.5907C19.0844 35.6823 19.3794 35.7897 19.6677 35.9127C19.7914 35.9687 19.805 36.0273 19.7307 36.1337C19.6447 36.2523 19.5664 36.3763 19.4957 36.5047C19.4864 36.5323 19.4707 36.5573 19.45 36.5783C19.4294 36.599 19.4044 36.6147 19.3767 36.6247C19.349 36.6343 19.3194 36.6377 19.2904 36.6343C19.261 36.631 19.233 36.6213 19.208 36.6057C18.9367 36.4923 18.654 36.4067 18.365 36.3507C18.1347 36.295 17.8934 36.3033 17.6677 36.375C17.5747 36.4047 17.488 36.451 17.4117 36.5117C17.3597 36.5493 17.319 36.6 17.2937 36.6587C17.268 36.7173 17.259 36.782 17.2674 36.8453C17.2757 36.9087 17.301 36.9683 17.3407 37.0187C17.3804 37.069 17.433 37.1077 17.493 37.131C17.647 37.195 17.8107 37.2343 17.977 37.247C18.3194 37.281 18.6587 37.337 18.9937 37.415C19.2334 37.4527 19.453 37.57 19.617 37.7477C19.781 37.9253 19.8794 38.153 19.896 38.3933C19.9397 38.6707 19.8854 38.9547 19.742 39.197C19.5984 39.4393 19.3747 39.625 19.109 39.722C18.9634 39.78 18.813 39.8257 18.6594 39.8587C18.4604 39.8983 18.257 39.914 18.054 39.905"
                fill="white" />
            <path
                d="M21.3773 37.681C21.3773 37.34 21.3773 36.9987 21.3773 36.659C21.3773 36.5227 21.3456 36.453 21.1969 36.4693C21.1379 36.4727 21.0786 36.4727 21.0196 36.4693C20.5933 36.4693 20.5933 36.4694 20.5933 36.0314C20.5933 35.5934 20.5933 35.6043 21.0263 35.599C21.4266 35.599 21.3729 35.6317 21.3786 35.2577C21.3786 35.0244 21.3786 34.791 21.3786 34.5563C21.3786 34.435 21.4143 34.3763 21.5449 34.3803C21.7609 34.3803 21.9769 34.3873 22.1926 34.3803C22.3303 34.3803 22.3579 34.4473 22.3579 34.562C22.3579 34.8443 22.3659 35.1267 22.3579 35.4077C22.3579 35.5443 22.4073 35.599 22.5436 35.599H23.5736C23.8213 35.599 23.8239 35.599 23.8283 35.8607C23.8283 36.0067 23.8283 36.1527 23.8283 36.2973C23.8283 36.442 23.7759 36.4707 23.6519 36.468C23.2989 36.4633 22.9456 36.4633 22.5916 36.468C22.3676 36.468 22.3606 36.468 22.3579 36.6917C22.3523 37.305 22.3523 37.918 22.3579 38.531C22.3489 38.634 22.3776 38.737 22.4389 38.8207C22.4999 38.9047 22.5893 38.964 22.6906 38.988C22.8293 39.0383 22.9773 39.0577 23.1243 39.0454C23.2716 39.0327 23.4139 38.9887 23.5419 38.9157C23.7566 38.8014 23.7623 38.8067 23.8473 39.0223L24.0483 39.5393C24.0813 39.6213 24.0976 39.6867 23.9906 39.725C23.5426 39.9274 23.0509 40.0164 22.5599 39.9844C22.2326 39.955 21.9289 39.8033 21.7099 39.56C21.4913 39.3167 21.3736 39.0003 21.3813 38.6744C21.3689 38.344 21.3813 38.0127 21.3813 37.6823L21.3773 37.681Z"
                fill="white" />
            <path
                d="M35.9128 36.7733C35.6384 36.511 35.2721 36.3643 34.8911 36.364C34.6041 36.3403 34.3181 36.42 34.0854 36.588C33.8528 36.756 33.6884 37.0013 33.6228 37.2797C33.5554 37.484 33.5328 37.7003 33.5564 37.9143C33.5801 38.1283 33.6498 38.3347 33.7604 38.5197C33.9011 38.751 34.1157 38.929 34.3701 39.0257C34.6247 39.122 34.9044 39.1313 35.1647 39.052C35.3814 38.988 35.5864 38.8893 35.7711 38.76C35.8797 38.6837 35.9377 38.7027 35.9914 38.8253C36.0697 39.0043 36.1604 39.176 36.2527 39.3493C36.3064 39.4517 36.2734 39.5063 36.1784 39.558C35.9064 39.724 35.6037 39.8347 35.2881 39.8837C34.9727 39.9327 34.6507 39.9193 34.3404 39.844C34.0304 39.7687 33.7381 39.6333 33.4811 39.4453C33.2241 39.2573 33.0071 39.0207 32.8431 38.749C32.5797 38.277 32.4981 37.7263 32.6138 37.1993C32.7291 36.6723 33.0334 36.2047 33.4701 35.8837C33.8881 35.632 34.3684 35.5 34.8574 35.5027C35.3464 35.5053 35.8251 35.6423 36.2401 35.8987C36.3394 35.9573 36.3491 36.0147 36.2911 36.11C36.1647 36.3177 36.0478 36.5303 35.9114 36.772"
                fill="white" />
            <path
                d="M43.3226 36.0323C43.5506 35.8723 43.7873 35.725 44.0323 35.5917C44.3146 35.447 44.643 35.4177 44.947 35.5097C45.0706 35.5397 45.1423 35.5903 45.0846 35.7336C45.0143 35.904 44.947 36.0787 44.892 36.2547C44.8546 36.3667 44.797 36.3733 44.6926 36.3393C44.4093 36.2467 44.1013 36.2637 43.83 36.387C43.6713 36.4437 43.5346 36.5487 43.4396 36.6867C43.3446 36.825 43.296 36.9893 43.3006 37.1567C43.3006 37.8977 43.3006 38.637 43.3006 39.378C43.3006 39.4557 43.3006 39.5333 43.3006 39.6113C43.3006 39.689 43.2703 39.7476 43.1823 39.7476H42.5343C42.4053 39.7476 42.397 39.6617 42.397 39.569V38.779C42.397 37.8247 42.4016 36.8697 42.4106 35.9137C42.4106 35.8357 42.4106 35.758 42.4106 35.6803C42.409 35.666 42.4103 35.6513 42.4153 35.6373C42.42 35.6237 42.4276 35.611 42.438 35.6007C42.4483 35.5903 42.461 35.5827 42.4746 35.5777C42.4886 35.5727 42.5033 35.571 42.518 35.5723C42.734 35.5723 42.9496 35.5723 43.1656 35.5723C43.2496 35.5723 43.284 35.6203 43.291 35.709C43.2816 35.8237 43.2916 35.939 43.3213 36.05"
                fill="white" />
            <path
                d="M30.5639 36.0513C30.8253 35.896 31.0399 35.765 31.2516 35.642C31.5096 35.4947 31.8139 35.449 32.1046 35.514C32.3796 35.5683 32.4043 35.6093 32.3136 35.8603C32.2929 35.915 32.2666 35.967 32.2476 36.0213C32.2199 36.1433 32.1696 36.259 32.0989 36.3627C32.0096 36.45 31.8913 36.3053 31.7703 36.312C31.5856 36.3063 31.4009 36.3227 31.2199 36.3613C31.0266 36.4057 30.8546 36.516 30.7346 36.673C30.6146 36.83 30.5536 37.024 30.5626 37.2207C30.5626 37.9113 30.5626 38.6017 30.5626 39.292V39.6127C30.5626 39.704 30.5336 39.7627 30.4249 39.7627H29.8076C29.7086 39.7627 29.6699 39.7177 29.6699 39.6263V39.4503C29.6699 38.2733 29.6733 37.0967 29.6796 35.9203C29.6796 35.8617 29.6796 35.803 29.6796 35.7457C29.6796 35.6327 29.7306 35.5877 29.8376 35.589C30.0233 35.589 30.2106 35.597 30.3963 35.589C30.5226 35.589 30.5736 35.6433 30.5653 35.7663C30.5653 35.8427 30.5653 35.9203 30.5653 36.054"
                fill="white" />
            <path
                d="M26.7361 3.57479C26.7361 3.53522 26.7471 3.49156 26.7827 3.47246C27.4057 3.14226 27.9161 2.65379 28.5337 2.31268C28.7344 2.20352 28.9134 2.02615 29.1734 2.04798C29.1881 2.04897 29.2027 2.04707 29.2167 2.04238C29.2304 2.0377 29.2434 2.03033 29.2544 2.02069C29.6281 1.7159 30.0584 1.48689 30.5211 1.34665C30.8014 1.21887 31.0961 1.12452 31.3987 1.06558C31.4931 1.04445 31.5831 1.00803 31.6654 0.95779C31.7807 0.883927 31.9118 0.83725 32.0481 0.821343C32.3864 0.78656 32.7211 0.721717 33.0477 0.627593C33.4104 0.516647 33.7831 0.441243 34.1604 0.40246C34.5884 0.3779 34.9954 0.229176 35.4274 0.240092C35.8591 0.251007 36.2938 0.219625 36.7231 0.252372C36.9731 0.232384 37.2247 0.257345 37.4657 0.326052C37.4904 0.336967 37.5317 0.349247 37.5497 0.336967C37.7451 0.177327 37.9197 0.297398 38.0931 0.376537C38.2247 0.413873 38.3621 0.42864 38.4987 0.420197C38.7121 0.40953 38.9261 0.43162 39.1328 0.48569C39.3088 0.556643 39.5331 0.52253 39.7144 0.622137C39.7308 0.633603 39.7497 0.64066 39.7697 0.642603C40.1017 0.659657 40.4298 0.72446 40.7434 0.83499C41.0084 0.896407 41.2661 0.98512 41.5124 1.09969C41.7874 1.22385 42.0747 1.32073 42.3607 1.41897C42.7117 1.53904 43.0141 1.7669 43.3747 1.86514C43.3924 1.86514 43.4048 1.88834 43.4214 1.89925C43.5951 2.05061 43.7997 2.16321 44.0211 2.22945C44.0901 2.23519 44.1561 2.25909 44.2127 2.29866C44.2694 2.33823 44.3144 2.39206 44.3427 2.45458C44.3557 2.47531 44.3737 2.4923 44.3951 2.50381C44.4167 2.51532 44.4407 2.52094 44.4654 2.52008C44.5344 2.52279 44.6007 2.54932 44.6524 2.59512C45.0767 2.86679 45.4801 3.16963 45.8587 3.50112C45.8864 3.54176 45.9238 3.57502 45.9674 3.59799C46.3161 3.74929 46.6161 3.99342 46.8338 4.30339C47.0071 4.50126 47.2464 4.62406 47.4281 4.81642C47.7884 5.19439 48.0951 5.62009 48.4831 5.97349C48.5898 6.08639 48.6821 6.21196 48.7581 6.34732C48.8804 6.53289 49.0484 6.68709 49.1707 6.86719C49.4031 7.17482 49.5954 7.51042 49.7427 7.86596C49.7814 7.98059 49.8954 8.03242 49.9534 8.13886C50.1267 8.45132 50.3261 8.75286 50.4964 9.06529C50.6244 9.29862 50.7124 9.56196 50.8307 9.80892C50.9491 10.0559 51.0468 10.3383 51.1471 10.6071C51.2808 10.9191 51.3631 11.2503 51.3907 11.5882C51.3907 11.6277 51.3824 11.6755 51.4017 11.7028C51.5277 11.9194 51.6204 12.1535 51.6767 12.3973C51.7247 12.5337 51.6767 12.6702 51.7181 12.7793C51.7801 13.0032 51.8261 13.2312 51.8554 13.4616C51.9374 13.7959 51.9871 14.1372 52.0041 14.4808C52.0124 14.7155 51.9104 14.9774 52.0864 15.2039C52.1051 15.2442 52.1147 15.2879 52.1147 15.3322C52.1147 15.3765 52.1051 15.4202 52.0864 15.4605C52.0187 15.6852 52.0154 15.9243 52.0771 16.1509C52.1154 16.2873 52.0331 16.3951 52.0384 16.5234C52.0334 17.133 51.9828 17.7414 51.8871 18.3435C51.8404 18.8129 51.6534 19.2441 51.6204 19.708C51.6204 19.7803 51.5527 19.8444 51.5281 19.9208C51.4537 20.1269 51.2971 20.3083 51.3314 20.5485C51.3331 20.5879 51.3214 20.6268 51.2984 20.659C51.1141 21.0545 50.9654 21.4654 50.8541 21.887C50.7478 22.0507 50.6848 22.2384 50.6714 22.4328C50.4758 22.6323 50.3547 22.8924 50.3287 23.1696C50.2737 23.2831 50.2014 23.3876 50.1141 23.4793C49.9941 23.6337 49.9088 23.8119 49.8638 24.0019C49.8417 24.0866 49.7937 24.1624 49.7264 24.2188C49.5104 24.4799 49.3144 24.7567 49.1404 25.047C48.9444 25.4157 48.6671 25.7356 48.3287 25.983C48.3041 25.998 48.2614 26.0117 48.2614 26.0322C48.1941 26.2969 47.9288 26.3733 47.7747 26.5575C47.6978 26.6302 47.6414 26.7214 47.6111 26.8222C47.5724 27.0036 47.4031 27.0951 47.2711 27.2069C46.9507 27.4798 46.6138 27.7527 46.3208 28.0543C46.1724 28.1938 46.0074 28.3152 45.8297 28.4158C45.5347 28.686 45.1881 28.8948 44.8104 29.0298C44.7827 29.036 44.7587 29.0526 44.7431 29.0762C44.5781 29.4119 44.2094 29.4542 43.9397 29.6316C43.7131 29.7803 43.4448 29.843 43.2274 30.0095C42.9518 30.1506 42.6558 30.2491 42.3498 30.3015C42.3044 30.3179 42.2261 30.3124 42.2124 30.3397C42.0844 30.6208 41.7997 30.5894 41.5701 30.6699C41.0711 30.8666 40.5588 31.0271 40.0364 31.1502C39.7184 31.2501 39.3801 31.2689 39.0531 31.2048C39.0261 31.1924 38.9957 31.19 38.9671 31.198C38.9387 31.206 38.9137 31.2239 38.8974 31.2484C38.7944 31.3985 38.6224 31.3849 38.4754 31.4108C38.3291 31.4184 38.1838 31.438 38.0408 31.4695C38.0188 31.4786 37.9954 31.4833 37.9718 31.4833C37.9484 31.4833 37.9247 31.4786 37.9031 31.4695C37.6721 31.2716 37.4368 31.4149 37.2031 31.4531C37.0611 31.4902 36.9117 31.4902 36.7697 31.4531C36.6841 31.4315 36.5954 31.4228 36.5071 31.4272C36.2721 31.4458 36.0357 31.4292 35.8057 31.378C35.7477 31.3683 35.6887 31.3715 35.6324 31.3876C35.5841 31.3944 35.5361 31.4285 35.4948 31.4217C35.2831 31.3944 35.0697 31.4149 34.8621 31.4053C34.5794 31.3983 34.2981 31.365 34.0217 31.3057C33.7224 31.2671 33.4331 31.1747 33.1674 31.0328C32.9977 30.9306 32.8004 30.883 32.6021 30.8964C32.5481 30.9038 32.4931 30.8898 32.4494 30.8574C32.4057 30.8249 32.3764 30.7767 32.3684 30.7231C32.3611 30.7023 32.3584 30.6802 32.3598 30.6582C32.3614 30.6362 32.3674 30.6147 32.3777 30.5951C32.3877 30.5755 32.4018 30.5581 32.4188 30.544C32.4361 30.5299 32.4557 30.5193 32.4771 30.513C32.5327 30.4924 32.5787 30.452 32.6064 30.3997C32.6324 30.3424 32.7314 30.2988 32.6724 30.2278C32.6131 30.1569 32.5471 30.2183 32.4934 30.2606C32.4261 30.3006 32.3477 30.3183 32.2694 30.3111C32.0274 30.3274 32.0274 30.3288 32.0494 30.5839C32.0494 30.6344 32.0574 30.6822 31.9984 30.7026C31.9797 30.7094 31.9594 30.7095 31.9407 30.7027C31.9221 30.696 31.9064 30.6829 31.8967 30.6658C31.7261 30.4079 31.4234 30.3752 31.1731 30.2565C31.1014 30.2334 31.0407 30.1848 31.0027 30.12C30.9131 29.9467 30.7617 29.9481 30.6697 30.12C30.6554 30.156 30.6457 30.1936 30.6407 30.2319C30.6347 30.2555 30.6201 30.276 30.6001 30.2898C30.5797 30.3036 30.5551 30.3097 30.5308 30.307C30.3934 30.307 30.3521 30.2019 30.3164 30.1009C30.2804 30 30.3561 29.9645 30.4427 29.9563C30.5294 29.9481 30.5941 29.8963 30.5804 29.8008C30.5667 29.7052 30.4731 29.7312 30.4167 29.6998C30.3947 29.6896 30.3704 29.6854 30.3461 29.6876C30.3221 29.6897 30.2991 29.6982 30.2791 29.7121C29.8871 29.9481 29.5667 29.7339 29.2711 29.5224C29.1651 29.4264 29.0264 29.3741 28.8831 29.3764C28.7454 29.386 28.6491 29.3355 28.6521 29.1813C28.6547 29.0271 28.5421 28.9166 28.5074 28.772C28.4621 28.5919 28.3014 28.5741 28.1858 28.7269C28.0951 28.847 28.0137 28.8838 27.9011 28.7733C27.8711 28.7434 27.8337 28.7216 27.7927 28.7102C27.7517 28.6987 27.7084 28.6979 27.6671 28.7078C27.5228 28.7083 27.3817 28.6652 27.2627 28.5843C27.1434 28.5034 27.0521 28.3885 27.0001 28.2548C27.1534 28.0523 27.3431 27.8797 27.5597 27.7459C27.5861 27.7324 27.6097 27.7149 27.6301 27.6941C28.0427 27.2506 28.4827 26.8345 28.8681 26.3678C29.1431 26.0376 29.4181 25.7102 29.6684 25.3649C29.9024 25.0443 30.0974 24.6964 30.3244 24.373C30.5711 23.9877 30.7974 23.5901 31.0027 23.1818C31.2124 22.8084 31.3847 22.4154 31.5171 22.0084C31.6271 21.6659 31.8071 21.3494 31.9047 21.0015C32.1097 20.2633 32.3051 19.5265 32.4454 18.7706C32.6527 17.5436 32.7231 16.2975 32.6544 15.0552C32.6184 14.3675 32.5311 13.6835 32.3931 13.0086C32.2617 12.3232 32.0874 11.6465 31.8717 10.9824C31.7454 10.5853 31.5844 10.1964 31.4207 9.81302C30.9984 8.80442 30.4684 7.84379 29.8391 6.94769C29.4464 6.39126 29.0237 5.85649 28.5721 5.34582C28.2971 5.03882 28.0221 4.74139 27.7181 4.46169C27.4471 4.19649 27.1621 3.94599 26.8641 3.71122C26.8214 3.67029 26.7841 3.62449 26.7524 3.57479M27.8021 28.4609C27.8018 28.4488 27.7991 28.437 27.7941 28.426C27.7891 28.4151 27.7817 28.4053 27.7727 28.3974C27.7637 28.3894 27.7531 28.3834 27.7414 28.3798C27.7301 28.3761 27.7177 28.3749 27.7057 28.3763C27.6547 28.3763 27.5984 28.3831 27.6037 28.4459C27.6057 28.4603 27.6104 28.4741 27.6181 28.4866C27.6254 28.4991 27.6354 28.5099 27.6474 28.5184C27.6591 28.5269 27.6727 28.5328 27.6871 28.5358C27.7014 28.5388 27.7161 28.5388 27.7304 28.5359C27.7494 28.5345 27.7674 28.526 27.7804 28.5121C27.7934 28.4982 27.8021 28.4799 27.8021 28.4609Z"
                fill="#FF9C0B" />
            <path
                d="M27.7854 28.4614C27.7854 28.4806 27.7781 28.4991 27.7647 28.5131C27.7514 28.5271 27.7334 28.5354 27.7141 28.5365C27.6997 28.5394 27.6847 28.5394 27.6704 28.5364C27.6561 28.5333 27.6427 28.5274 27.6307 28.519C27.6187 28.5105 27.6087 28.4997 27.6014 28.4872C27.5941 28.4747 27.5891 28.4608 27.5874 28.4464C27.5874 28.3837 27.6384 28.3755 27.6891 28.3768C27.7011 28.3755 27.7134 28.3767 27.7251 28.3803C27.7364 28.3839 27.7471 28.3899 27.7564 28.3979C27.7654 28.4059 27.7727 28.4157 27.7777 28.4266C27.7827 28.4375 27.7854 28.4494 27.7854 28.4614Z"
                fill="#FEA016" />
        </g>
    </g>
</svg>