<svg xmlns="http://www.w3.org/2000/svg" width="55" height="32" viewBox="0 0 55 32" fill="none">
    <path fill-rule="evenodd" clip-rule="evenodd"
        d="M54.3025 16C54.3025 7.1634 47.1391 0 38.3025 0C34.467 0 30.9791 1.34102 28.2233 3.59246C30.324 5.62245 31.9295 8.16301 32.7907 11.0358H31.462C30.6285 8.48289 29.1644 6.22837 27.2636 4.41984C25.3721 6.22222 23.9234 8.48597 23.0929 11.0265H21.7642C22.6223 8.16917 24.2002 5.62553 26.2856 3.60169C23.5358 1.37486 20.0633 0 16.2525 0C7.40974 0 0.246338 7.1634 0.246338 16C0.246338 24.8366 7.40974 32 16.2463 32C20.0603 32 23.5328 30.6251 26.2794 28.3983C24.194 26.3745 22.6162 23.8308 21.7581 20.9735H23.0868C23.9172 23.514 25.3659 25.7778 27.2575 27.5802C29.1614 25.7716 30.6223 23.5202 31.4559 20.9642H32.7846C31.9234 23.837 30.3178 26.3776 28.2171 28.4075C30.973 30.6559 34.4609 32 38.2963 32C47.1391 32 54.3025 24.8366 54.3025 16Z"
        fill="white" />
    <path fill-rule="evenodd" clip-rule="evenodd"
        d="M42.5439 19.7462L43.6481 13.8254H45.0445L45.1891 14.4098C45.4382 14.1176 45.918 13.8254 46.7331 13.8254L46.2963 15.3664C45.8996 15.3664 45.1491 15.2618 44.6693 17.0334L44.1679 19.7432H42.5439V19.7462Z"
        fill="#1F1F1F" />
    <path fill-rule="evenodd" clip-rule="evenodd"
        d="M21.1336 12.3214H22.7422L22.4131 13.89H23.2804L22.9913 15.1695H22.167L21.7118 17.5625C21.6288 18.0177 21.6718 18.4298 22.6007 18.2853L22.4961 19.4817C22.1455 19.7093 21.6718 19.7709 21.2997 19.7709C20.9275 19.7709 19.7095 19.5432 20.0202 17.9346L21.1336 12.3214Z"
        fill="#1F1F1F" />
    <path fill-rule="evenodd" clip-rule="evenodd"
        d="M28.1126 17.1104C28.2972 16.1599 28.7309 13.807 25.9043 13.807C23.3022 13.807 22.9731 16.3876 22.9116 16.7566C22.8501 17.1288 22.807 19.7493 25.5936 19.7493C26.2734 19.7709 27.2668 19.6878 27.6574 19.4817L27.9035 18.2638C27.6574 18.3253 26.7286 18.4083 26.0857 18.4083C25.446 18.4083 24.4156 18.4483 24.6002 17.1073H28.1126V17.1104Z"
        fill="#1F1F1F" />
    <path fill-rule="evenodd" clip-rule="evenodd"
        d="M19.6081 15.2126L19.9802 14.0162C19.2175 13.727 18.6177 13.7886 18.3901 13.7886C18.1625 13.7886 16.2309 13.764 15.9356 15.1911C15.708 16.2861 16.1079 16.7382 16.4924 16.9043C17.1106 17.1719 17.4643 17.421 17.7934 17.584C18.2025 17.787 18.1256 18.4698 17.5873 18.4698C17.3382 18.4698 16.2678 18.5929 15.462 18.3253L15.2344 19.5433C15.9787 19.7493 16.5754 19.7493 17.1321 19.7493C17.5227 19.7493 19.442 19.8539 19.7127 18.0761C19.8449 17.2119 19.4635 16.8182 19.1559 16.6305C18.8453 16.4245 18.3316 16.1354 17.9995 15.9908C17.6704 15.8462 17.4212 15.2895 18.021 15.1234C18.3901 15.0896 19.1529 15.0896 19.6081 15.2126Z"
        fill="#1F1F1F" />
    <path fill-rule="evenodd" clip-rule="evenodd"
        d="M9.16594 19.7525L10.507 12.6106H7.8649L5.90257 16.9443L5.595 12.6106H3.01445L1.63037 19.7525H3.24206L4.23245 14.5914L4.66613 19.7525H6.19169L8.44314 14.7175L7.49273 19.7525H9.16594Z"
        fill="#1F1F1F" />
    <path fill-rule="evenodd" clip-rule="evenodd"
        d="M10.9407 13.9946L10.6916 15.2742C11.0853 15.2342 12.1372 15.0681 12.6939 15.0896C13.2506 15.1111 13.8719 15.0281 13.6843 15.9139C13.2721 15.9539 10.3809 15.5018 9.92878 17.9777C9.74424 19.1957 10.7961 19.814 11.6204 19.774C12.4447 19.734 12.6723 19.6294 12.9615 19.4233L13.1675 19.7524H14.6746L15.3144 16.5321C15.4805 15.7263 15.7481 13.7886 13.0445 13.7886C12.5493 13.8101 11.9926 13.7886 10.9407 13.9946Z"
        fill="#1F1F1F" />
    <path fill-rule="evenodd" clip-rule="evenodd"
        d="M37.0259 14.2623C36.6138 14.0131 36.3247 13.9731 35.7864 13.9731C35.2512 13.9731 34.0517 14.4868 33.8272 15.9324C33.5596 17.6456 34.7345 18.4914 36.3862 17.9347L36.8598 19.3803C36.3247 19.6294 35.7864 19.7524 34.9006 19.7524C33.2274 19.7524 31.4127 18.2669 32.237 15.2526C32.846 13.032 34.756 12.22 35.8695 12.2599C37.189 12.3092 37.6657 12.7551 38.0778 13.2103L37.0259 14.2623Z"
        fill="#1F1F1F" />
    <path fill-rule="evenodd" clip-rule="evenodd"
        d="M50.753 14.5113C50.4423 14.2837 50.2578 13.8101 49.495 13.8101C48.6061 13.8101 47.2251 13.644 46.4408 16.3291C45.9179 18.1222 46.976 19.7555 48.1325 19.7555C48.6707 19.7339 49.2059 19.5063 49.535 19.2818L49.7411 19.7555H51.4758L52.8783 12.2445H51.1867L50.753 14.5113Z"
        fill="#1F1F1F" />
    <path fill-rule="evenodd" clip-rule="evenodd"
        d="M38.1824 13.9946L37.9333 15.2742C38.327 15.2342 39.3789 15.0681 39.9356 15.0896C40.4923 15.1111 41.1136 15.0281 40.926 15.9139C40.5138 15.9539 37.6226 15.5018 37.1705 17.9777C36.9859 19.1957 38.0378 19.814 38.8621 19.774C39.6864 19.734 39.914 19.6294 40.2032 19.4233L40.4092 19.7524H41.9163L42.5561 16.5321C42.7222 15.7263 42.9898 13.7886 40.2862 13.7886C39.7941 13.8101 39.2343 13.7886 38.1824 13.9946Z"
        fill="#1F1F1F" />
    <path fill-rule="evenodd" clip-rule="evenodd"
        d="M24.7046 16.0369H26.7069C26.8115 15.4587 26.6239 14.9635 25.9841 14.9635C25.3443 14.9635 24.8922 15.2957 24.7046 16.0369Z"
        fill="white" />
    <path fill-rule="evenodd" clip-rule="evenodd"
        d="M13.4166 17.1103C13.149 17.0673 12.5492 16.9043 12.0325 17.2549C11.5158 17.6055 11.3712 18.2238 11.9095 18.4329C12.4262 18.6328 13.189 18.2884 13.2936 17.7532L13.4166 17.1103Z"
        fill="white" />
    <path fill-rule="evenodd" clip-rule="evenodd"
        d="M50.1747 16.9257C50.3408 16.3906 50.2485 15.7201 50.0702 15.4801C49.575 14.8189 48.4369 15.3417 48.0894 16.6366C47.8618 17.4825 48.357 18.1222 48.9137 18.1222C49.5134 18.1222 49.8856 17.6485 50.1747 16.9257Z"
        fill="white" />
    <path fill-rule="evenodd" clip-rule="evenodd"
        d="M40.6585 17.1103C40.3909 17.0673 39.7912 16.9043 39.2745 17.2549C38.7577 17.6055 38.6132 18.2238 39.1514 18.4329C39.6681 18.6328 40.4309 18.2884 40.5355 17.7532L40.6585 17.1103Z"
        fill="white" />
    <path fill-rule="evenodd" clip-rule="evenodd"
        d="M28.1587 19.7524L29.2537 13.89H30.6377L30.7823 14.4683C31.0314 14.1791 31.5051 13.89 32.3079 13.89L31.8957 15.4371C31.5051 15.4371 30.7392 15.3141 30.2656 17.0673L29.7704 19.7493H28.1587V19.7524Z"
        fill="#1F1F1F" />
</svg>