<svg xmlns="http://www.w3.org/2000/svg" width="225" height="37" viewBox="0 0 225 37" fill="none">
    <path
        d="M219.358 26.2554C217.93 26.3233 216.606 26.9689 215.658 28.022C214.711 29.0752 214.198 30.4682 214.269 31.8951C214.406 34.8508 216.95 37.161 219.896 36.9912C222.849 36.8553 225.16 34.3072 224.991 31.3515C224.855 28.3957 222.343 26.1195 219.358 26.2554ZM215.184 31.8611C215.113 30.672 215.522 29.5169 216.34 28.6335C217.151 27.7502 218.235 27.2406 219.423 27.1726C221.869 27.0368 223.972 28.9394 224.108 31.4195C224.108 31.4874 224.108 31.5893 224.108 31.6573C224.108 34.0015 222.239 36.0059 219.864 36.1079C217.424 36.2438 215.321 34.3412 215.184 31.8611Z"
        fill="#8CC63F" />
    <path
        d="M217.612 34L217.386 29.1262L219.273 29.0108C219.648 28.982 219.951 29.0108 220.154 29.0973C220.351 29.1839 220.529 29.3281 220.654 29.5299C220.779 29.7318 220.856 29.9914 220.856 30.2509C220.88 30.597 220.779 30.8854 220.606 31.1449C220.428 31.4045 220.125 31.5487 219.725 31.6641C219.874 31.7506 219.999 31.8082 220.076 31.8947C220.25 32.0678 220.404 32.2696 220.577 32.5292L221.386 33.827L220.678 33.8558L220.076 32.8753C219.898 32.5869 219.749 32.385 219.648 32.212C219.547 32.0678 219.446 31.9524 219.345 31.8947C219.273 31.837 219.172 31.8082 219.095 31.7794C219.017 31.7794 218.916 31.7794 218.767 31.7794L218.113 31.8082L218.214 33.9712L217.612 34ZM218.036 31.2603L219.244 31.2026C219.499 31.1738 219.696 31.1449 219.85 31.0872C219.999 31.0295 220.101 30.9142 220.178 30.77C220.25 30.6258 220.279 30.4816 220.279 30.3374C220.279 30.1067 220.178 29.9337 220.024 29.7895C219.874 29.6453 219.648 29.5876 219.321 29.6165L217.963 29.703L218.036 31.2603Z"
        fill="#8CC63F" />
    <path
        d="M208.396 2.78587C205.715 0.951273 201.613 0 196.285 0H182.273L177.048 28.3004H158.694L159.881 21.8793H170.941L172.265 14.6768L161.205 14.7108L162.393 8.32365H173.79L175.315 0.0339436H152.177L147.225 26.9075H138.743L143.727 0.0339436H131.649L126.697 26.9075H118.422L123.406 0H111.328L106.103 28.3344H87.6126L88.8003 21.9133H99.8921L101.216 14.7448H90.1243L91.312 8.32365H102.813L104.305 0.0339436H32.2445L28.1362 22.4569L19.9584 0.0339436H7.40634L0.688965 36.6241H12.6634L16.7393 13.5557L24.6768 36.6241H67.5967L72.8214 8.32365H79.5387L74.3141 36.658H187.257L190.515 18.7877L195.811 36.658H207.786L202.288 22.0492L203.548 21.7774C206.293 21.1999 208.467 19.9088 209.96 18.0063C211.453 16.0697 212.231 13.5896 212.231 10.6339C212.296 7.13458 211.011 4.58651 208.396 2.78587ZM57.1799 28.3344H38.858L40.0457 21.9133H51.5464L52.8704 14.6768H41.4735L42.5574 8.32365H60.8793L57.1799 28.3344ZM198.524 16.0018C197.336 16.8512 195.571 17.2589 193.196 17.2589H192.144H190.82L192.657 7.44033H193.572H194.383C196.35 7.44033 197.81 7.74609 198.829 8.42555C199.608 8.93516 200.523 9.95439 200.523 11.857C200.523 14.0992 199.439 15.3563 198.524 16.0018Z"
        fill="#8CC63F" />
</svg>