<svg xmlns="http://www.w3.org/2000/svg" width="119" height="40" viewBox="0 0 119 40" fill="none">
    <path
        d="M94.237 3.93034L104.03 2.18669V39.5974H94.237V3.93034ZM108.54 3.93034V39.5974H118.343V2.18669L108.54 3.93034ZM80.285 39.5974H90.0856V12.2347H80.285V39.5974ZM15.5267 16.104C14.2879 16.0235 11.4204 15.8393 11.4204 13.2707C11.4204 10.172 15.549 10.172 17.097 10.172C19.8199 10.172 23.3456 10.9717 25.8638 11.7214C25.8638 11.7214 27.2684 12.2139 28.4638 12.7185L28.5747 12.7487V12.6362V4.26086L28.4227 4.216C25.4507 3.18189 21.9953 2.18691 15.589 2.18691C4.54215 2.18691 0.628418 8.58874 0.628418 14.0731C0.628418 17.2346 1.99012 24.6758 14.641 25.5342C15.7135 25.5991 18.5593 25.7627 18.5593 28.4165C18.5593 30.6078 16.2295 31.8999 12.3107 31.8999C8.0164 31.8999 3.84898 30.8102 1.31927 29.777V38.5183C5.10784 39.5059 9.37755 40 14.3833 40C25.1838 40 30.021 33.9429 30.021 27.9395C30.021 21.1327 24.6073 16.709 15.5267 16.104ZM74.7616 11.834C65.705 12.1235 61.1067 16.1657 61.1067 24.2018V39.5974H70.9884V27.0425C70.9884 22.2311 71.6221 20.1674 77.3604 19.9714V11.9753C76.3953 11.7711 74.7616 11.834 74.7616 11.834ZM48.1787 12.2031C47.9604 12.7487 46.3924 17.158 42.5964 21.7285V2.18669L32.485 4.17486V39.5972H42.5964V28.6479C45.5255 33.0174 46.9713 39.5972 46.9713 39.5972H59.0833C57.8856 34.6417 52.6444 25.5051 52.6444 25.5051C57.3479 19.5723 59.4135 13.2512 59.7421 12.2031H48.1787ZM85.1827 9.60977C87.8518 9.60977 90.0141 7.45949 90.0141 4.8064C90.0141 2.15309 87.8518 0 85.1827 0C82.5175 0 80.3553 2.15309 80.3553 4.8064C80.3553 7.4592 82.5175 9.60977 85.1827 9.60977Z"
        fill="#862165" />
</svg>