<svg xmlns="http://www.w3.org/2000/svg" width="96" height="32" viewBox="0 0 96 32" fill="none">
    <path fill-rule="evenodd" clip-rule="evenodd"
        d="M80.6517 18.229C80.4037 18.229 80.1042 18.229 79.808 18.229C75.8133 18.2255 71.8117 18.2187 67.8169 18.2187C66.4566 18.2152 66.2742 18.4047 66.2707 19.7615C66.2638 20.8426 66.2638 21.9137 66.2707 22.9915C66.2741 24.4586 66.4221 24.6066 67.9306 24.6066C72.3282 24.6102 76.7258 24.6343 81.1237 24.5895C82.0362 24.5792 82.3874 24.7995 82.3357 25.7638C82.2599 27.2378 82.2945 28.7186 82.3255 30.1925C82.3357 30.8365 82.1636 31.1362 81.4473 31.1362C73.6644 31.1156 65.8851 31.1156 58.1057 31.1291C57.4205 31.1325 57.1312 30.9605 57.1346 30.1925C57.162 20.8118 57.162 11.4346 57.145 2.05375C57.145 1.26167 57.3962 0.958617 58.2056 0.962137C65.8953 0.975942 73.5818 0.96904 81.2717 0.955234C82.0121 0.95185 82.3324 1.19982 82.3118 1.97457C82.2739 3.35557 82.2705 4.74333 82.3256 6.12433C82.3566 6.9026 82.0638 7.12295 81.3132 7.11957C76.8846 7.09534 72.4594 7.10238 68.0307 7.11267C66.4362 7.11605 66.2536 7.32612 66.2504 8.94818C66.247 9.62318 66.2433 10.3016 66.2504 10.9766C66.2709 12.2265 66.4673 12.447 67.7035 12.4263C71.6639 12.3746 75.6276 12.299 79.5913 12.2368C80.8105 12.2196 80.8174 12.2334 80.8137 13.4524C80.8105 14.9573 80.7999 16.4621 80.7827 17.9671C80.7824 18.0222 80.7309 18.074 80.6517 18.229Z"
        fill="white" />
    <path fill-rule="evenodd" clip-rule="evenodd"
        d="M26.5781 9.19247C25.6757 9.25798 24.8905 9.3132 24.1019 9.37154C22.511 9.48524 20.92 9.57809 19.3325 9.7194C18.6609 9.78139 18.1582 9.67135 17.7898 9.02721C17.3936 8.33502 16.915 7.68776 16.426 7.05743C14.8935 5.07046 11.8941 5.594 10.4958 6.66477C9.38702 7.51546 9.75193 9.54723 11.0916 9.96046C13.8432 10.8111 16.6361 11.5411 19.3876 12.3952C20.6721 12.7913 21.9394 13.2907 23.1483 13.8794C27.3702 15.9354 28.2828 20.4948 27.4323 23.873C26.3579 28.1363 23.3307 30.2921 19.3256 31.3047C15.1932 32.3515 11.0642 32.2102 6.98682 30.9224C3.1814 29.7239 1.18062 27.0103 0.467724 23.2015C0.147481 21.49 0.140578 21.4831 1.86929 21.3659C3.70832 21.242 5.55425 21.1799 7.38624 20.9973C8.41938 20.8976 8.94969 21.2281 9.25275 22.2372C9.91746 24.4446 11.4878 25.6775 13.7227 26.1388C15.4825 26.504 17.7312 25.2918 18.358 23.587C18.7817 22.4402 18.2376 21.0214 16.9977 20.2982C16.316 19.8988 15.5583 19.6094 14.8075 19.3581C12.3348 18.5281 9.84166 17.7638 7.37244 16.9301C5.75728 16.3757 4.30414 15.5391 3.12969 14.2511C-0.255462 10.5353 0.750068 4.63964 5.17865 2.26691C10.7197 -0.701626 16.3226 -0.674014 21.991 1.87778C24.4326 2.97643 25.8652 4.80504 26.2337 7.467C26.306 8.0011 26.4437 8.53141 26.5781 9.19247Z"
        fill="white" />
    <path fill-rule="evenodd" clip-rule="evenodd"
        d="M28.8544 16.08C28.8544 11.3725 28.851 6.67182 28.8544 1.97118C28.8544 0.776156 28.8956 0.731354 30.1114 0.731354C34.7845 0.731354 39.4577 0.696975 44.1275 0.755448C45.715 0.776156 47.3267 0.900136 48.8798 1.21009C52.3063 1.90567 54.5 4.36109 54.8375 7.83585C55.0477 10.0329 55.1371 12.237 54.1833 14.3582C52.7198 17.6057 50.1576 19.2517 46.7069 19.4928C44.2584 19.6685 41.7962 19.6513 39.3408 19.6479C38.4799 19.6445 38.1562 19.8682 38.1698 20.7843C38.2215 23.949 38.1939 27.1173 38.187 30.2819C38.187 31.3944 38.0768 31.5012 36.9817 31.5045C34.6159 31.5115 32.2467 31.4839 29.8809 31.5287C29.0647 31.5425 28.8339 31.2601 28.8374 30.4647C28.8682 25.6674 28.8544 20.8736 28.8544 16.08ZM38.1938 10.2291H38.1972C38.1972 11.1521 38.2213 12.0749 38.1904 12.9979C38.1697 13.6281 38.4212 13.9104 39.0548 13.8725C40.2498 13.7969 41.4516 13.8072 42.6362 13.6625C44.4993 13.4285 45.6116 12.1164 45.5703 10.3602C45.5186 8.45928 44.2168 6.92669 42.4089 6.77875C41.2794 6.68563 40.1361 6.75113 39.0032 6.72704C38.4177 6.71676 38.1697 6.96472 38.187 7.55702C38.2145 8.4452 38.1938 9.33717 38.1938 10.2291Z"
        fill="white" />
    <path fill-rule="evenodd" clip-rule="evenodd"
        d="M90.4729 24.8511C92.0468 22.6057 93.6239 20.3604 95.332 17.9188C95.387 18.3597 95.4355 18.5559 95.4355 18.7522C95.4388 22.623 95.4181 26.4972 95.456 30.3678C95.4629 31.1392 95.1358 31.3183 94.4849 31.3183C92.1122 31.3183 89.7462 31.325 87.3805 31.3424C86.8535 31.3457 86.4884 31.2632 86.4955 30.5985C86.5472 27.0378 86.5713 23.4735 86.6021 19.9092C86.6124 18.6419 86.6056 18.635 87.8935 18.6419C90.194 18.6523 89.8496 18.4112 89.8738 20.5808C89.8841 21.6552 89.8531 22.7329 89.8876 23.8074C89.8979 24.138 90.0563 24.4686 90.1424 24.7992C90.2526 24.8166 90.3629 24.8338 90.4729 24.8511Z"
        fill="white" />
    <path fill-rule="evenodd" clip-rule="evenodd"
        d="M90.1804 5.93481C90.1632 6.18955 90.1358 6.44807 90.1358 6.69928C90.1322 8.08705 90.1184 9.46452 90.146 10.849C90.1599 11.4897 89.9635 11.8236 89.261 11.7857C88.5548 11.7512 87.8456 11.7547 87.1396 11.7891C86.4749 11.8236 86.2854 11.4826 86.2854 10.9041C86.2924 7.9184 86.2889 4.93957 86.2889 1.95723C86.2889 1.25813 86.5713 0.889703 87.3393 0.89999C89.7086 0.927602 92.0744 0.920699 94.4402 0.903509C95.1635 0.903509 95.4631 1.13767 95.4562 1.92975C95.4148 5.1564 95.439 8.38333 95.4356 11.6134C95.4356 11.8408 95.3942 12.068 95.1806 12.378C93.6414 10.1739 92.102 7.96997 90.5591 5.76942C90.4353 5.82464 90.3078 5.87973 90.1804 5.93481Z"
        fill="white" />
</svg>