<svg xmlns="http://www.w3.org/2000/svg" width="128" height="24" viewBox="0 0 128 24" fill="none">
    <path
        d="M40.7085 2.67212H44.5594L37.5812 18.8341H33.6836L26.7288 2.67212H30.5796L35.6441 14.7537L40.7085 2.67212Z"
        fill="url(#paint0_linear_113_11)" />
    <path
        d="M49.6674 7.20841C50.5387 7.20841 51.3322 7.38318 52.0479 7.73271C52.7637 8.06704 53.3782 8.51535 53.8917 9.07764C54.4051 9.62473 54.8019 10.263 55.0819 10.9925C55.362 11.7067 55.502 12.4438 55.502 13.2036C55.502 13.6595 55.4398 14.1458 55.3153 14.6625H47.0535C47.3647 15.1792 47.8081 15.6199 48.3838 15.9847C48.9595 16.3342 49.5818 16.509 50.2509 16.509C50.9199 16.509 51.5034 16.4558 52.0013 16.3494C52.5147 16.243 52.997 16.1062 53.4483 15.9391L54.5218 17.8767C53.9461 18.2718 53.2849 18.5757 52.5381 18.7885C51.8068 19.0013 51.021 19.1076 50.1809 19.1076C49.2629 19.1076 48.4071 18.9557 47.6136 18.6517C46.8201 18.3326 46.1277 17.9071 45.5365 17.3752C44.9453 16.8433 44.4785 16.2126 44.1362 15.4832C43.7939 14.7537 43.6227 13.9787 43.6227 13.158C43.6227 12.3526 43.7783 11.5927 44.0895 10.8785C44.4007 10.149 44.8286 9.51835 45.3731 8.98646C45.9333 8.43937 46.579 8.00625 47.3102 7.68712C48.0415 7.36798 48.8272 7.20841 49.6674 7.20841ZM52.3047 12.2234C52.118 11.5699 51.7834 11.038 51.3011 10.6277C50.8188 10.2174 50.2742 10.0123 49.6674 10.0123C49.0451 10.0123 48.4772 10.2174 47.9637 10.6277C47.4658 11.038 47.1235 11.5699 46.9368 12.2234H52.3047Z"
        fill="url(#paint1_linear_113_11)" />
    <path
        d="M63.8508 7.52755C64.2865 7.52755 64.7688 7.58834 65.2978 7.70991C65.8268 7.83149 66.3247 8.05944 66.7915 8.39378C67.2583 8.72811 67.6472 9.19162 67.9584 9.7843C68.2852 10.377 68.4485 11.1444 68.4485 12.0866V18.8341H65.2045V12.2006C65.2045 11.8511 65.1422 11.5547 65.0178 11.3116C64.9089 11.0684 64.7533 10.8785 64.551 10.7417C64.3643 10.5897 64.1465 10.4834 63.8975 10.4226C63.6486 10.3466 63.3996 10.3086 63.1507 10.3086C62.9484 10.3086 62.7228 10.3466 62.4739 10.4226C62.2405 10.4834 62.0149 10.5897 61.7971 10.7417C61.5948 10.8937 61.4236 11.0912 61.2836 11.3344C61.1436 11.5775 61.0736 11.8663 61.0736 12.2006V18.8341H57.8529V7.52755H60.6068L61.0736 8.39378C61.447 8.13543 61.8671 7.93027 62.3338 7.7783C62.8006 7.61113 63.3063 7.52755 63.8508 7.52755Z"
        fill="url(#paint2_linear_113_11)" />
    <path
        d="M74.727 14.7765C74.727 15.3084 74.8903 15.7187 75.2171 16.0075C75.5594 16.2962 76.0028 16.4406 76.5474 16.4406C76.983 16.4406 77.4187 16.357 77.8543 16.1898V18.8341C77.4653 18.9557 77.053 19.0544 76.6174 19.1304C76.1817 19.2216 75.7461 19.2672 75.3104 19.2672C74.8125 19.2672 74.338 19.2064 73.8868 19.0848C73.4356 18.9633 73.031 18.7581 72.6732 18.4694C72.3153 18.1654 72.0275 17.7703 71.8096 17.284C71.6074 16.7825 71.5062 16.167 71.5062 15.4376V10.3314H69.8492V8.21141L71.5062 7.52755V4.99725H74.727V7.52755H77.8543V10.3314H74.727V14.7765Z"
        fill="url(#paint3_linear_113_11)" />
    <path
        d="M86.7186 7.52755H89.9393V18.8341H87.1853L86.7186 17.9679C86.3452 18.2262 85.9173 18.439 85.435 18.6061C84.9682 18.7581 84.4625 18.8341 83.918 18.8341C83.4979 18.8341 83.0155 18.7733 82.471 18.6517C81.942 18.5302 81.4441 18.3022 80.9773 17.9679C80.5105 17.6335 80.1138 17.17 79.787 16.5773C79.4759 15.9847 79.3203 15.2172 79.3203 14.275V7.52755H82.5643V14.161C82.5643 14.5106 82.6188 14.8069 82.7277 15.05C82.8522 15.2932 83.0078 15.4908 83.1945 15.6427C83.3967 15.7795 83.6223 15.8859 83.8713 15.9619C84.1202 16.0227 84.3769 16.053 84.6414 16.053C84.8437 16.053 85.0615 16.0227 85.2949 15.9619C85.5439 15.8859 85.7695 15.7719 85.9717 15.6199C86.1896 15.468 86.3685 15.2704 86.5085 15.0273C86.6486 14.7841 86.7186 14.4954 86.7186 14.161V7.52755Z"
        fill="url(#paint4_linear_113_11)" />
    <path
        d="M95.2364 9.10044C95.392 8.85728 95.5709 8.62933 95.7732 8.41657C95.9755 8.18862 96.2166 7.99106 96.4967 7.82389C96.7767 7.64153 97.0957 7.49716 97.4536 7.39078C97.8114 7.2844 98.216 7.23121 98.6672 7.23121C99.1962 7.23121 99.8108 7.32239 100.511 7.50476L100.208 10.3086C100.036 10.2782 99.8652 10.2402 99.6941 10.1946C99.554 10.1642 99.3984 10.1414 99.2273 10.1262C99.0561 10.0958 98.9006 10.0806 98.7605 10.0806C98.2626 10.0806 97.7959 10.149 97.3602 10.2858C96.9401 10.4226 96.5745 10.6125 96.2633 10.8557C95.9521 11.0988 95.7032 11.3952 95.5165 11.7447C95.3298 12.079 95.2364 12.4438 95.2364 12.8389V18.8341H92.0157V7.52755H94.933L95.2364 9.10044Z"
        fill="url(#paint5_linear_113_11)" />
    <path
        d="M111.371 7.52755H114.895L107.59 23.3476H104.066L106.937 17.1244L102.036 7.52755H105.63L108.641 13.4316L111.371 7.52755Z"
        fill="url(#paint6_linear_113_11)" />
    <path
        d="M117.959 12.9143H121.744V14.0659H119.258V15.1341H121.445V16.2857H119.258V18.831H117.959V12.9143Z"
        fill="white" />
    <path
        d="M125.821 15.6432L128 18.831H126.445L125.035 16.7865L123.634 18.831H122.071L124.258 15.6432L122.387 12.9143H123.942L125.035 14.5082L126.129 12.9143H127.692L125.821 15.6432Z"
        fill="white" />
    <path
        d="M4.13593 16.8115C4.13593 17.927 3.21007 18.8313 2.06797 18.8313C0.92586 18.8313 0 17.927 0 16.8115C0 15.6959 0.92586 14.7916 2.06797 14.7916C3.21007 14.7916 4.13593 15.6959 4.13593 16.8115Z"
        fill="url(#paint7_linear_113_11)" />
    <path
        d="M2.06797 4.69228C3.06843 4.69228 3.90296 3.99836 4.09457 3.0764H16.1301V14.8319C15.1862 15.0191 14.4758 15.8342 14.4758 16.8114C14.4758 17.9269 15.4016 18.8312 16.5437 18.8312C17.6858 18.8312 18.6117 17.9269 18.6117 16.8114C18.6117 15.8342 17.9012 15.0191 16.9573 14.8319V2.26847H4.09457C3.90296 1.34651 3.06843 0.652588 2.06797 0.652588C0.92586 0.652588 0 1.5569 0 2.67243C0 3.78797 0.92586 4.69228 2.06797 4.69228Z"
        fill="white" />
    <defs>
        <linearGradient id="paint0_linear_113_11" x1="12.7166" y1="23.3476" x2="131.505" y2="23.3476"
            gradientUnits="userSpaceOnUse">
            <stop stop-color="#FFD84E" />
            <stop offset="1" stop-color="#7FD6A8" />
        </linearGradient>
        <linearGradient id="paint1_linear_113_11" x1="12.7166" y1="23.3476" x2="131.505" y2="23.3476"
            gradientUnits="userSpaceOnUse">
            <stop stop-color="#FFD84E" />
            <stop offset="1" stop-color="#7FD6A8" />
        </linearGradient>
        <linearGradient id="paint2_linear_113_11" x1="12.7166" y1="23.3476" x2="131.505" y2="23.3476"
            gradientUnits="userSpaceOnUse">
            <stop stop-color="#FFD84E" />
            <stop offset="1" stop-color="#7FD6A8" />
        </linearGradient>
        <linearGradient id="paint3_linear_113_11" x1="12.7166" y1="23.3476" x2="131.505" y2="23.3476"
            gradientUnits="userSpaceOnUse">
            <stop stop-color="#FFD84E" />
            <stop offset="1" stop-color="#7FD6A8" />
        </linearGradient>
        <linearGradient id="paint4_linear_113_11" x1="12.7166" y1="23.3476" x2="131.505" y2="23.3476"
            gradientUnits="userSpaceOnUse">
            <stop stop-color="#FFD84E" />
            <stop offset="1" stop-color="#7FD6A8" />
        </linearGradient>
        <linearGradient id="paint5_linear_113_11" x1="12.7166" y1="23.3476" x2="131.505" y2="23.3476"
            gradientUnits="userSpaceOnUse">
            <stop stop-color="#FFD84E" />
            <stop offset="1" stop-color="#7FD6A8" />
        </linearGradient>
        <linearGradient id="paint6_linear_113_11" x1="12.7166" y1="23.3476" x2="131.505" y2="23.3476"
            gradientUnits="userSpaceOnUse">
            <stop stop-color="#FFD84E" />
            <stop offset="1" stop-color="#7FD6A8" />
        </linearGradient>
        <linearGradient id="paint7_linear_113_11" x1="-0.657318" y1="18.8313" x2="4.91511" y2="18.8313"
            gradientUnits="userSpaceOnUse">
            <stop stop-color="#FFD84E" />
            <stop offset="1" stop-color="#7FD6A8" />
        </linearGradient>
    </defs>
</svg>