<svg xmlns="http://www.w3.org/2000/svg" width="129" height="40" viewBox="0 0 129 40" fill="none">
    <mask id="mask0_113_263" style="mask-type:luminance" maskUnits="userSpaceOnUse" x="0" y="0" width="129"
        height="40">
        <path d="M128.276 0H0V40H128.276V0Z" fill="white" />
    </mask>
    <g mask="url(#mask0_113_263)">
        <mask id="mask1_113_263" style="mask-type:luminance" maskUnits="userSpaceOnUse" x="0" y="0"
            width="129" height="40">
            <path d="M128.276 0H0V40H128.276V0Z" fill="white" />
        </mask>
        <g mask="url(#mask1_113_263)">
            <path
                d="M65.8147 39.0353C65.8754 39.0159 65.9408 39.0142 66.0025 39.0306C66.0641 39.047 66.1195 39.0806 66.1613 39.1273C66.1013 39.152 66.0343 39.1564 65.9713 39.1397C65.9084 39.123 65.8532 39.0861 65.8147 39.0353Z"
                fill="#298EE6" />
            <path d="M104.319 33.4898C104.363 33.4117 104.415 33.4005 104.479 33.4703L104.319 33.4898Z"
                fill="#0F3A90" />
            <path
                d="M104.167 33.6178L104.288 33.5008C104.286 33.531 104.273 33.5593 104.25 33.5807C104.228 33.6022 104.198 33.6153 104.167 33.6178Z"
                fill="#0F3A90" />
            <path
                d="M93.2366 1.52149C93.0407 1.47342 92.8476 1.41384 92.6593 1.34315C89.729 0.393977 86.6511 -0.0604368 83.5607 -9.19406e-05C79.6207 -0.0697471 75.7414 0.939012 72.3711 2.90936C70.8593 3.76508 69.5586 4.92887 68.5613 6.31949C67.5635 7.71005 66.8923 9.29398 66.5944 10.9607C66.3421 12.1528 66.3486 13.3825 66.6137 14.572C66.8786 15.7616 67.3963 16.8853 68.1339 17.8721C69.0683 19.0761 70.1966 20.128 71.4759 20.9878C73.0104 21.9972 74.6283 22.8826 76.3138 23.6354C77.5469 24.1821 78.6952 24.8901 79.7276 25.7395C80.1145 26.0364 80.4207 26.4193 80.6207 26.8554C80.8207 27.2916 80.9083 27.768 80.8752 28.2438C80.8428 28.7196 80.691 29.1807 80.4331 29.5876C80.1759 29.9945 79.8193 30.3351 79.3959 30.5803C78.3276 31.2731 77.0897 31.6835 75.8055 31.7703C72.871 32.0357 69.9124 31.6722 67.1404 30.7057C66.2392 30.3991 65.3697 30.0312 64.5033 29.6439C64.018 29.4265 64.0122 29.4405 63.8735 29.9588C63.8694 29.9827 63.8626 30.006 63.8534 30.0285C63.293 32.4865 62.7529 34.9473 62.1724 37.4025C62.1412 37.4742 62.1272 37.5517 62.1313 37.6294C62.1354 37.7069 62.1576 37.7827 62.1962 37.8509C62.2347 37.9192 62.2886 37.9782 62.354 38.0236C62.4194 38.0689 62.4945 38.0996 62.5738 38.1131C63.6264 38.5056 64.7102 38.815 65.8146 39.0385C65.8753 39.0189 65.9406 39.0173 66.0024 39.0337C66.064 39.05 66.1193 39.0837 66.1612 39.1304L66.45 39.1722C66.8847 39.3775 67.3683 39.467 67.8508 39.4314L68.0906 39.4648C68.1566 39.5267 68.2404 39.568 68.331 39.5834C68.4217 39.5989 68.515 39.5876 68.599 39.5512L68.9773 39.5986C69.3883 39.7544 69.8345 39.8043 70.271 39.7435L70.3062 39.7574H70.3435C70.6952 39.891 71.0807 39.9201 71.4497 39.841L72.2904 39.8912C73.2552 40.0455 74.24 40.0455 75.2048 39.8912L75.5917 39.8634L75.6379 39.8912L75.6814 39.8578L76.0628 39.8104C76.7331 39.8665 77.4083 39.7983 78.0524 39.6098L78.2952 39.5707C78.7352 39.6038 79.1759 39.5189 79.569 39.3255L79.9448 39.2558C80.0048 39.2854 80.0745 39.2934 80.14 39.2787C80.2062 39.2638 80.2648 39.2271 80.3055 39.175L80.5338 39.0998C80.5531 39.1138 80.5752 39.1235 80.5986 39.1279C80.6228 39.1323 80.6469 39.1314 80.6704 39.1252C80.6931 39.119 80.7145 39.1077 80.7324 39.0921C80.7504 39.0766 80.7648 39.0573 80.7738 39.0356L81.1579 38.9409C81.1731 38.9539 81.1917 38.9629 81.211 38.9671C81.231 38.9711 81.2517 38.9703 81.2717 38.9643C81.291 38.9585 81.3083 38.9478 81.3228 38.9334C81.3366 38.9191 81.3462 38.9015 81.351 38.8824L81.6055 38.7987C81.6228 38.8114 81.6428 38.82 81.6642 38.8239C81.6855 38.8278 81.7076 38.8269 81.729 38.8212C81.7497 38.8155 81.769 38.8053 81.7848 38.7912C81.8014 38.7772 81.8138 38.7598 81.8221 38.7403L82.0504 38.6622C82.0683 38.6734 82.089 38.6804 82.1104 38.6826C82.1317 38.6848 82.1538 38.6822 82.1738 38.6749C82.1938 38.6676 82.2117 38.6558 82.2269 38.6405C82.2414 38.6253 82.2524 38.6069 82.2579 38.5869L82.5035 38.5034L82.5642 38.5256L82.5759 38.4587C83.669 38.0985 84.7111 37.608 85.6779 36.9985C87.2842 36.0816 88.6524 34.8226 89.6773 33.3175C90.7021 31.8124 91.3566 30.1011 91.5904 28.3145C91.8352 27.0224 91.7952 25.6952 91.4731 24.4189C91.1511 23.1427 90.5545 21.9461 89.7214 20.907C88.6793 19.6943 87.4359 18.6566 86.0421 17.8359C84.4559 16.8521 82.7697 16.0467 81.1117 15.1856C79.9731 14.6695 78.9297 13.9787 78.0207 13.14C77.7628 12.9148 77.5573 12.6389 77.4179 12.3307C77.2793 12.0227 77.2104 11.6894 77.2159 11.3535C77.2214 11.0176 77.3007 10.6867 77.4497 10.3829C77.5986 10.0791 77.8131 9.80963 78.0786 9.59232C78.329 9.35267 78.6117 9.14646 78.9193 8.97922C80.0007 8.40053 81.2124 8.08577 82.449 8.06232C85.3938 7.92287 88.3338 8.42184 91.0531 9.52267C91.2876 9.6588 91.5517 9.7408 91.8242 9.76232C91.8642 9.69694 91.8973 9.62784 91.9228 9.55611C92.4828 7.09529 93.029 4.63446 93.5924 2.17646C93.6704 1.83922 93.6386 1.61908 93.2338 1.52708"
                fill="#142E79" />
            <path
                d="M48.6518 0.76331C48.6092 0.737793 48.5623 0.719861 48.5131 0.710344C45.1241 0.710344 41.7331 0.710344 38.3403 0.710344C38.204 0.695999 38.067 0.730344 37.9553 0.806895C37.8435 0.883378 37.7647 0.996758 37.7337 1.12559C37.4968 1.73869 37.2282 2.34069 36.977 2.94821C34.7721 8.27669 32.5673 13.6043 30.3625 18.931C29.4152 21.2273 28.4725 23.5246 27.5348 25.8229L27.168 26.7035C26.8474 26.6478 26.9167 26.383 26.8792 26.1852C26.3227 23.3295 25.769 20.4758 25.2183 17.6239C24.3981 13.3906 23.5604 9.16297 22.7661 4.91855C22.5956 3.70724 21.9565 2.6031 20.9772 1.82766C19.9978 1.05228 18.7506 0.663035 17.4861 0.738207C12.1628 0.819035 6.85111 0.782827 1.53072 0.793931C1.20433 0.793931 0.877944 0.793931 0.551553 0.793931C0.477994 0.782551 0.402586 0.79393 0.33616 0.826482C0.269733 0.859034 0.215706 0.911102 0.18184 0.975102C-0.164765 1.63283 -0.0376764 1.93655 0.693082 2.08986C1.00004 2.19538 1.32328 2.25 1.64914 2.25152C1.76627 2.33366 1.90886 2.3749 2.05351 2.36855C2.06318 2.3849 2.07632 2.3991 2.09207 2.41021C2.10781 2.42138 2.12583 2.42917 2.14491 2.4331C2.16399 2.43703 2.18373 2.43703 2.20282 2.4331C2.22192 2.42924 2.23993 2.42145 2.2557 2.41034C2.30209 2.45193 2.35764 2.48276 2.41817 2.50062C2.47871 2.51848 2.54265 2.5229 2.60519 2.51345L6.52183 3.65048L6.56227 3.68676H6.61715C6.62207 3.70179 6.63069 3.71545 6.64228 3.72655C6.65387 3.73772 6.6681 3.74593 6.68372 3.75062C6.69934 3.75524 6.71589 3.75621 6.73196 3.75331C6.74804 3.75041 6.76316 3.74386 6.77601 3.73414L7.04178 3.82607C7.33667 4.01724 7.67054 4.14552 8.02088 4.20228L8.2433 4.28035H8.27509L8.59861 4.40855C8.62461 4.48379 8.67371 4.49214 8.73723 4.46152L8.99143 4.56462C9.28433 4.78469 9.62336 4.94062 9.98502 5.02165L10.2305 5.14145C10.2443 5.17952 10.2716 5.21159 10.3075 5.232C10.3435 5.25241 10.3858 5.25979 10.427 5.25296C10.427 5.26179 10.4294 5.27048 10.4339 5.27821C10.4384 5.28586 10.4448 5.29242 10.4525 5.2971C10.4603 5.30179 10.4692 5.30462 10.4783 5.30517C10.4874 5.30573 10.4966 5.30407 10.5049 5.30035L10.5194 5.34772H10.5685L10.7071 5.43966C10.76 5.52 10.8297 5.58876 10.9118 5.64159C10.9938 5.69435 11.0865 5.73 11.1837 5.74621L11.7614 6.36214H11.7816H11.7758L12.1571 6.93903C12.1452 6.97828 12.1486 7.02035 12.1667 7.05731C12.1848 7.09428 12.2163 7.12359 12.2553 7.13966L12.3592 7.39324C12.3592 7.41276 12.3332 7.43786 12.339 7.44904C12.3604 7.48331 12.3845 7.51593 12.4112 7.54655L12.4892 7.79455C12.4761 7.84166 12.4772 7.89145 12.4925 7.93786C12.5079 7.98434 12.5369 8.02552 12.5759 8.05655C12.565 8.18931 12.6073 8.32103 12.6943 8.42441L12.6625 8.44669L12.7145 8.4551L12.7578 8.64738C12.7421 8.7209 12.7443 8.79704 12.7643 8.86959C12.7843 8.94214 12.8217 9.00924 12.8734 9.06538C12.8633 9.12014 12.8661 9.17634 12.8816 9.22993C12.8972 9.28345 12.9249 9.33296 12.963 9.37476C12.9472 9.4229 12.9454 9.47428 12.9576 9.52331C12.9698 9.57241 12.9956 9.61738 13.0323 9.65345C13.0189 9.70779 13.0185 9.76435 13.031 9.81883C13.0435 9.87338 13.0686 9.92448 13.1045 9.96835C13.385 11.3396 13.7427 12.6951 14.1761 14.0288C14.1771 14.1959 14.2249 14.3597 14.3147 14.5026C14.3007 14.5184 14.2907 14.5372 14.2856 14.5574C14.2804 14.5776 14.2802 14.5987 14.285 14.619C14.2897 14.6392 14.2994 14.6582 14.313 14.6743C14.3267 14.6903 14.3441 14.7032 14.3638 14.7116L14.4187 14.9123C14.4007 14.9846 14.4016 15.0602 14.4213 15.1321C14.441 15.2041 14.4787 15.2703 14.5313 15.3247C14.5183 15.4456 14.5501 15.567 14.6209 15.6675C14.5631 15.7567 14.6064 15.8263 14.6613 15.896L15.0252 17.3731L15.1321 17.6517C15.1251 17.7081 15.1304 17.7654 15.1478 17.8196C15.1653 17.8739 15.1943 17.924 15.2332 17.9667C15.2149 18.0131 15.2098 18.0634 15.2184 18.1125C15.227 18.1614 15.2491 18.2074 15.2823 18.2454C15.2716 18.329 15.2797 18.4139 15.3061 18.4942C15.3325 18.5746 15.3766 18.6484 15.4354 18.7108L15.5105 18.9894C15.4927 19.047 15.4907 19.1079 15.5043 19.1665C15.518 19.225 15.547 19.2792 15.5885 19.3239L15.6607 19.5691C15.6467 19.6258 15.6467 19.6848 15.6607 19.7415C15.6747 19.7981 15.7025 19.8508 15.7416 19.8952C15.732 19.9627 15.7368 20.0314 15.7557 20.097C15.7746 20.1626 15.8071 20.2239 15.8513 20.277C15.9015 20.7666 16.0261 21.2465 16.221 21.7011C16.2103 21.8444 16.2456 21.9874 16.3221 22.1108H16.3307L16.3885 22.3588C16.3723 22.4181 16.3725 22.4806 16.3892 22.5398C16.4059 22.599 16.4386 22.6529 16.4838 22.696C16.4746 22.8357 16.5098 22.9748 16.585 23.0946C16.5301 23.1753 16.5618 23.2283 16.6369 23.2785C16.6281 23.4222 16.6698 23.5646 16.7554 23.6826C16.7554 23.6992 16.7236 23.7243 16.7294 23.7355C16.7467 23.7697 16.767 23.8023 16.7901 23.833C16.7774 23.9842 16.817 24.1351 16.9027 24.2622L16.9402 24.4099C16.9315 24.5641 16.9729 24.7171 17.0587 24.8475C17.0587 24.8642 17.0269 24.8865 17.0327 24.8921C17.0503 24.9207 17.0706 24.9477 17.0933 24.9729C17.0836 25.1333 17.125 25.2928 17.2117 25.4299C17.2117 25.4466 17.1771 25.469 17.1829 25.4773C17.2003 25.5087 17.2206 25.5386 17.2435 25.5665L17.333 25.8452C17.3432 26.1785 17.4228 26.5064 17.567 26.8095C17.5578 26.9243 17.5951 27.0381 17.671 27.1271C17.6985 27.5574 17.8062 27.9794 17.9887 28.3728L18.0523 28.6014C18.0366 28.6458 18.0351 28.6937 18.048 28.7389C18.0608 28.7841 18.0875 28.8246 18.1245 28.855C18.1096 29.0308 18.1587 29.2062 18.2631 29.351C18.2631 29.3678 18.2314 29.3928 18.2371 29.404C18.2532 29.439 18.2726 29.4726 18.2949 29.5043L18.3613 29.7663C18.3437 29.824 18.3419 29.8852 18.3561 29.9438C18.3703 30.0024 18.3999 30.0565 18.4422 30.1007C18.4332 30.2496 18.4771 30.397 18.5664 30.5188C18.5664 30.5354 18.5317 30.5578 18.5375 30.5661C18.5551 30.5975 18.5754 30.6273 18.5981 30.6553C18.5924 30.6639 18.5885 30.6734 18.5867 30.6834C18.5849 30.6934 18.5852 30.7037 18.5877 30.7137C18.5901 30.7235 18.5946 30.7328 18.6009 30.741C18.6072 30.7492 18.615 30.7561 18.6241 30.7612C18.6054 30.8312 18.6045 30.9046 18.6216 30.975C18.6387 31.0454 18.6732 31.1107 18.7223 31.1653C18.715 31.3396 18.7634 31.5118 18.861 31.6586C18.861 31.6781 18.8321 31.7032 18.8379 31.7171C18.857 31.755 18.8792 31.7914 18.9043 31.8258C18.8933 31.9759 18.935 32.125 19.0227 32.2494C19.0227 32.2661 18.991 32.2884 18.9967 32.2996C19.0143 32.3327 19.0345 32.3644 19.0574 32.3943C19.0419 32.5322 19.0834 32.6704 19.173 32.7789C19.1482 32.8246 19.1402 32.8769 19.1501 32.9274C19.1601 32.9781 19.1875 33.0239 19.2278 33.0576C19.2192 33.1145 19.2232 33.1725 19.2396 33.2278C19.2561 33.283 19.2845 33.3343 19.3232 33.3781C19.3043 33.6092 19.3663 33.8399 19.4993 34.033C19.4877 34.1019 19.4904 34.1724 19.5072 34.2404C19.5241 34.3083 19.5548 34.3723 19.5975 34.4288C19.5975 34.4483 19.5687 34.4761 19.5773 34.4901C19.5992 34.5282 19.6243 34.5646 19.6524 34.5988C19.6366 34.7319 19.6726 34.866 19.7535 34.975C19.7312 35.2534 19.801 35.5315 19.9528 35.7692C19.9439 35.9148 19.9834 36.0592 20.0654 36.1817C20.0416 36.2142 20.031 36.2541 20.0358 36.2938C20.0406 36.3334 20.0605 36.3699 20.0914 36.3963C20.0751 36.4543 20.0728 36.5151 20.0848 36.5741C20.0969 36.6331 20.1229 36.6886 20.1607 36.7363C20.1781 36.8059 20.1607 36.8895 20.2532 36.9258C20.2473 37.0592 20.2858 37.1911 20.363 37.302C20.3381 37.3478 20.3302 37.4005 20.3407 37.4512C20.3512 37.5019 20.3794 37.5477 20.4207 37.5807C20.415 37.7128 20.4547 37.8431 20.5334 37.9513C20.5334 37.9513 20.4987 37.9848 20.5045 37.9903C20.5206 38.0117 20.539 38.0313 20.5594 38.0489L20.6432 38.361C20.6164 38.4074 20.6087 38.4618 20.6215 38.5134C20.6343 38.565 20.6668 38.6101 20.7125 38.6397C20.7077 38.8018 20.7497 38.9619 20.8338 39.1023L20.802 39.1107L20.8482 39.1274C20.8514 39.1728 20.8701 39.2157 20.9015 39.2496C20.933 39.2834 20.9752 39.3061 21.0215 39.3141C21.111 39.4479 21.2468 39.3838 21.3594 39.3838C24.3114 39.3838 27.2643 39.3838 30.2181 39.3838C30.7135 39.4272 31.2127 39.4076 31.7027 39.3252C31.753 39.3229 31.8014 39.3067 31.8424 39.2785C31.8834 39.2503 31.9151 39.2114 31.9338 39.1664C32.2585 38.5186 32.5393 37.8512 32.7743 37.1682C32.9555 36.8974 33.0874 36.5986 33.1643 36.2848C33.2683 36.0925 33.3838 35.9058 33.4704 35.7051L36.9018 27.8768C40.78 18.9941 44.6638 10.1132 48.5536 1.23428C48.6171 1.08938 48.7673 0.955587 48.646 0.76607M21.761 39.303L23.2051 39.2863L21.761 39.3002"
                fill="#12255D" />
            <path
                d="M16.8711 24.3067C16.8895 24.3401 16.9109 24.3717 16.935 24.4014L16.8972 24.2538C16.8972 24.2705 16.8653 24.2956 16.8711 24.3067Z"
                fill="#12255D" />
            <path d="M8.27296 4.28607H8.24048L8.2582 4.32511V4.29449" fill="#12255D" />
            <path
                d="M120.229 1.46317C120.09 0.922483 120.188 0.685656 119.362 0.685656H111.301C110.823 0.684483 110.347 0.743516 109.885 0.861171C109.139 1.0609 108.454 1.43407 107.891 1.948C107.328 2.462 106.904 3.10117 106.656 3.80972C105.397 6.76379 104.105 9.70676 102.817 12.6497C99.2206 20.8561 95.6213 29.0616 92.0206 37.2661C91.7317 37.9043 91.4751 38.5509 91.1799 39.2448C92.0517 39.3174 92.9261 39.337 93.7999 39.3033C96.3103 39.3033 98.8227 39.3033 101.333 39.3033C101.732 39.3033 102.032 39.2839 102.199 38.8184C102.821 37.0739 103.496 35.3488 104.152 33.6181L104.276 33.5011H104.308C104.351 33.423 104.403 33.4119 104.467 33.4816C105.32 33.5422 106.176 33.5422 107.029 33.4816C107.07 33.5058 107.118 33.5155 107.165 33.5089C107.213 33.5023 107.256 33.4798 107.289 33.4453C107.317 33.4716 107.353 33.4885 107.392 33.4934C107.431 33.4985 107.471 33.4914 107.505 33.4732C107.57 33.5001 107.639 33.514 107.709 33.514C107.779 33.514 107.848 33.5001 107.912 33.4732C107.97 33.5016 108.035 33.512 108.099 33.503C108.162 33.494 108.221 33.4661 108.268 33.423C108.284 33.4484 108.307 33.4696 108.334 33.485C108.361 33.5003 108.39 33.5092 108.421 33.5111C108.452 33.513 108.483 33.5078 108.512 33.4959C108.541 33.4839 108.566 33.4657 108.585 33.4426H108.612C108.639 33.4721 108.676 33.4913 108.716 33.4965C108.756 33.5016 108.797 33.4923 108.831 33.4704H108.996C109.036 33.4919 109.08 33.5032 109.125 33.5032C109.171 33.5032 109.216 33.4919 109.256 33.4704C109.47 33.5315 109.697 33.5315 109.912 33.4704C109.95 33.4916 109.995 33.5028 110.04 33.5028C110.085 33.5028 110.129 33.4916 110.168 33.4704C110.673 33.5295 111.183 33.5295 111.688 33.4704C111.738 33.4941 111.792 33.5063 111.848 33.5063C111.903 33.5063 111.959 33.4941 112.008 33.4704C113.814 33.5317 115.619 33.5094 117.424 33.4927C117.523 33.6335 117.589 33.7932 117.618 33.9609C117.941 35.4797 118.276 36.993 118.596 38.5119C118.761 39.2978 118.747 39.3033 119.535 39.3061H125.023C125.954 39.3061 126.881 39.2866 127.811 39.3061C128.183 39.3061 128.316 39.1723 128.221 38.824C128.189 38.707 128.174 38.5871 128.149 38.4673C127.316 34.5285 126.485 30.5897 125.653 26.651C124.621 21.8203 123.581 16.9898 122.534 12.1592C122.115 10.2083 121.748 8.25758 121.245 6.3402C121.008 4.83531 120.621 3.36662 120.318 1.88117M102.254 29.2232C102.225 29.2232 102.173 29.1926 102.133 29.1759C102.15 29.1341 102.162 29.0728 102.191 29.0616C102.22 29.0504 102.272 29.0894 102.315 29.1061C102.298 29.148 102.286 29.2093 102.257 29.2204M114.989 25.617H107.985C107.257 25.617 107.236 25.5975 107.494 24.9231C109.186 20.4455 110.884 15.9688 112.586 11.4931C112.639 11.4104 112.699 11.3321 112.765 11.259C112.921 11.9168 113.054 12.4741 113.187 13.037C114.026 16.9387 114.86 20.8487 115.688 24.767C115.873 25.6281 115.87 25.6198 114.986 25.6198"
                fill="#0A3192" />
            <path
                d="M102.309 29.1092C102.292 29.151 102.28 29.2123 102.252 29.2234C102.223 29.2345 102.17 29.1928 102.127 29.1761C102.145 29.1342 102.156 29.0729 102.185 29.0618C102.214 29.0506 102.266 29.0896 102.309 29.1092Z"
                fill="#0F3A90" />
            <path
                d="M62.9205 0.697222H61.4127C58.9094 0.697222 56.3985 0.697222 53.8798 0.697222C53.2819 0.697222 53.2761 0.69722 53.1404 1.2546C52.9593 2.00888 52.7841 2.76508 52.6147 3.52308C51.1396 10.0778 49.6647 16.6325 48.1897 23.1873C47.0343 28.3449 45.8674 33.5024 44.689 38.66C44.5503 39.3038 44.5503 39.3094 45.2089 39.3121H49.7292H54.2495C54.9109 39.3121 54.9138 39.3121 55.0611 38.6544C55.5907 36.3376 56.1193 34.0152 56.6469 31.6872C58.5436 23.2876 60.4384 14.888 62.3312 6.48833C62.7154 4.78274 63.0909 3.07722 63.4865 1.37439C63.6396 0.699981 63.6772 0.677705 62.9262 0.672119"
                fill="#0F215F" />
        </g>
    </g>
</svg>