<svg xmlns="http://www.w3.org/2000/svg" width="59" height="32" viewBox="0 0 59 32" fill="none">
    <g clip-path="url(#clip0_113_40)">
        <path fill-rule="evenodd" clip-rule="evenodd"
            d="M16.8401 17.2884L21.9705 0.372803H26.5467L21.4162 17.2884H16.8401Z" fill="white" />
        <path fill-rule="evenodd" clip-rule="evenodd"
            d="M14.7911 0.376099L10.6736 7.5455C9.62443 9.4228 9.01405 10.373 8.71712 11.5575H8.65443C8.72701 10.053 8.51586 8.20536 8.49936 7.16278L8.04406 0.376099H0.34017L0.260986 0.831403C2.24057 0.831403 3.41513 1.8245 3.73846 3.86017L5.23964 17.2884H9.98075L19.5685 0.376099H14.7911Z"
            fill="white" />
        <path fill-rule="evenodd" clip-rule="evenodd"
            d="M50.3874 17.2883L50.262 14.7742L44.5476 14.771L43.3796 17.2916H38.4109L47.4213 0.409058H53.5217L55.046 17.2916H50.3874V17.2883ZM49.8628 7.30791C49.8133 6.05748 49.7704 4.36163 49.8529 3.33554H49.7869C49.5098 4.17687 48.3121 6.69754 47.7842 7.93808L46.0818 11.6465H50.0937L49.8628 7.30791Z"
            fill="white" />
        <path fill-rule="evenodd" clip-rule="evenodd"
            d="M31.3504 17.7668C28.1171 17.7668 25.9725 16.7407 24.4417 15.8268L26.6225 12.4978C27.9983 13.2665 29.0772 14.154 31.5583 14.154C32.3567 14.154 33.1254 13.9462 33.5642 13.1906C34.201 12.092 33.4158 11.4981 31.6308 10.4852L30.7466 9.91112C28.0973 8.0998 26.9491 6.38086 28.1963 3.37519C28.998 1.455 31.103 0 34.5771 0C36.9724 0 39.2193 1.03598 40.5291 2.04887L38.0216 4.98856C36.7448 3.95587 35.6857 3.43458 34.4748 3.43458C33.5082 3.43458 32.7757 3.8074 32.5217 4.3089C32.0433 5.2525 32.6767 5.89586 34.069 6.76358L35.1182 7.43004C38.335 9.45912 39.1038 11.5872 38.2954 13.5767C36.9097 17.0013 34.1944 17.7668 31.3504 17.7668Z"
            fill="white" />
        <path fill-rule="evenodd" clip-rule="evenodd"
            d="M4.46094 32C16.2989 26.9257 32.9076 22.3298 54.9008 26.9323L55.1317 21.3532C31.9244 18.8193 15.2728 26.2098 4.46094 31.4491V32Z"
            fill="white" />
        <path fill-rule="evenodd" clip-rule="evenodd"
            d="M56.2964 2.98915H55.9962V1.15473H56.6923C57.1344 1.15473 57.3621 1.3098 57.3621 1.68262C57.3621 2.01585 57.1575 2.15112 56.8837 2.18411L57.3984 2.98915H57.0585L56.5834 2.20391H56.2997V2.98915H56.2964ZM56.6329 1.94656C56.8573 1.94656 57.0585 1.92347 57.0585 1.65952C57.0585 1.43847 56.8408 1.41208 56.6593 1.41208H56.2964V1.94656H56.6329ZM56.623 3.6952C55.6695 3.6952 54.9932 2.98255 54.9932 2.03894C54.9932 1.04255 55.7454 0.38269 56.623 0.38269C57.4907 0.38269 58.243 1.04255 58.243 2.03894C58.2463 3.03534 57.494 3.6952 56.623 3.6952ZM56.623 0.67303C55.9071 0.67303 55.3462 1.23391 55.3462 2.04224C55.3462 2.79449 55.8345 3.41146 56.623 3.41146C57.3324 3.41146 57.89 2.85387 57.89 2.04224C57.89 1.23391 57.3324 0.67303 56.623 0.67303Z"
            fill="white" />
    </g>
    <defs>
        <clipPath id="clip0_113_40">
            <rect width="57.9854" height="32" fill="white" transform="translate(0.260986)" />
        </clipPath>
    </defs>
</svg>