<svg xmlns="http://www.w3.org/2000/svg" width="70" height="32" viewBox="0 0 70 32" fill="none">
    <path fill-rule="evenodd" clip-rule="evenodd"
        d="M0.456055 2.1619C0.456055 0.972763 1.42882 0 2.61795 0H67.7238C68.913 0 69.8858 0.972763 69.8858 2.1619V29.838C69.8858 31.0273 68.913 32 67.7238 32H2.61795C1.42882 32 0.456055 31.0273 0.456055 29.838V2.1619Z"
        fill="white" />
    <path fill-rule="evenodd" clip-rule="evenodd"
        d="M0.456055 3.14185H69.8859V28.8578H0.456055V3.14185Z" fill="#1F1F1F" />
    <path fill-rule="evenodd" clip-rule="evenodd"
        d="M58.8434 4.74599C53.5057 4.62335 50.9963 8.04603 47.3542 12.2675L43.9186 16.2491L49.359 22.7622C50.6552 24.7634 48.1814 26.7494 46.6466 24.9183L41.6166 18.9181L36.7151 24.6001C35.1542 26.4088 32.7085 24.3883 34.0324 22.4058L39.3533 16.2182L35.8674 12.0597L38.1098 9.28253L41.655 13.5412L44.7111 9.98637C46.2106 8.2434 47.7398 5.93367 49.7218 4.74599H0.456055V27.2541H11.9746C17.313 27.2541 19.7363 24.0623 23.2796 19.7583L26.623 15.6973L21.0328 9.31235C19.692 7.34137 22.1188 5.29938 23.6956 7.09445L28.862 12.9775L33.6326 7.18354C35.1509 5.33847 37.6421 7.30309 36.3646 9.31571L31.1875 15.6249L34.7687 19.7021L32.5122 22.3741L28.9477 18.3538L25.9748 21.9773C24.5157 23.7544 23.0386 26.0211 21.0842 27.2541H69.8859V4.74599H58.8434ZM20.8793 15.587C20.8793 20.6048 16.7878 24.6966 11.7704 24.6966C6.75165 24.6966 2.66023 20.6048 2.66023 15.587C2.66023 10.5685 6.75165 6.47697 11.7704 6.47697C16.7878 6.47697 20.8793 10.5685 20.8793 15.587ZM59.296 24.6966C54.2781 24.6966 50.1858 20.6048 50.1858 15.587C50.1858 10.5685 54.2781 6.47697 59.296 6.47697C64.3141 6.47697 68.4054 10.5685 68.4054 15.587C68.4054 20.6048 64.3141 24.6966 59.296 24.6966Z"
        fill="white" />
</svg>