<svg width="24" height="24" viewBox="0 0 24 24" fill="none" xmlns="http://www.w3.org/2000/svg">
<path id="Vector" d="M19.7984 20.0998H16.3925V14.7628C16.3925 13.4901 16.3667 11.8524 14.6177 11.8524C12.8419 11.8524 12.5707 13.2373 12.5707 14.6689V20.0998H9.16476V9.125H12.4365V10.6209H12.4806C12.9378 9.75839 14.0494 8.84804 15.7102 8.84804C19.1612 8.84804 19.7994 11.1194 19.7994 14.0758L19.7984 20.0998ZM5.31805 7.62329C4.22172 7.62329 3.34101 6.73588 3.34101 5.64433C3.34101 4.55375 4.22268 3.66729 5.31805 3.66729C6.41055 3.66729 7.29605 4.55375 7.29605 5.64433C7.29605 6.73588 6.40959 7.62329 5.31805 7.62329ZM7.0258 20.0998H3.6103V9.125H7.0258V20.0998ZM21.5023 0.5H1.90064C0.962429 0.5 0.20343 1.24175 0.20343 2.15696V21.8431C0.20343 22.7591 0.962429 23.5 1.90064 23.5H21.4995C22.4368 23.5 23.2034 22.7591 23.2034 21.8431V2.15696C23.2034 1.24175 22.4368 0.5 21.4995 0.5H21.5023Z" fill="#002358"/>
</svg>
