<svg width="23" height="24" viewBox="0 0 23 24" fill="none" xmlns="http://www.w3.org/2000/svg">
<path id="Vector" d="M19.595 20.0998H16.1891V14.7628C16.1891 13.4901 16.1633 11.8524 14.4142 11.8524C12.6385 11.8524 12.3672 13.2373 12.3672 14.6689V20.0998H8.96133V9.125H12.2331V10.6209H12.2772C12.7343 9.75839 13.846 8.84804 15.5067 8.84804C18.9578 8.84804 19.596 11.1194 19.596 14.0758L19.595 20.0998ZM5.11462 7.62329C4.01829 7.62329 3.13758 6.73588 3.13758 5.64433C3.13758 4.55375 4.01925 3.66729 5.11462 3.66729C6.20712 3.66729 7.09262 4.55375 7.09262 5.64433C7.09262 6.73588 6.20616 7.62329 5.11462 7.62329ZM6.82237 20.0998H3.40687V9.125H6.82237V20.0998ZM21.2989 0.5H1.69721C0.758999 0.5 0 1.24175 0 2.15696V21.8431C0 22.7591 0.758999 23.5 1.69721 23.5H21.2961C22.2333 23.5 23 22.7591 23 21.8431V2.15696C23 1.24175 22.2333 0.5 21.2961 0.5H21.2989Z" fill="white"/>
</svg>
